<?xml version="1.0" standalone="no"?><!DOCTYPE svg PUBLIC "-//W3C//DTD SVG 1.1//EN" "http://www.w3.org/Graphics/SVG/1.1/DTD/svg11.dtd"><svg width="187" height="271" version="1.1" xmlns="http://www.w3.org/2000/svg" xmlns:xlink="http://www.w3.org/1999/xlink"><path stroke-width="1" stroke="white" fill="steelblue" d="M136.01417062827386,254.04621285421308L108.15792739507742,243.94133801595308L82.05074984091334,234.40773849468678L60.62131897790823,226.37083792989142L56.977703806362115,225.28510967176408L51.08873968361877,223.14656578178983L42.052949206437916,220.07485057634767L40.643645251053385,219.4336222296115L39.436126803513616,219.02664308203384L38.3593205420766,218.67496181745082L36.30433218728285,217.9691278821556L30.691510962555185,215.83942639641464L26.852808212628588,213.46253658656497L20.81879186932929,210.79452157614287L19.963067427976057,213.4373790982645L18.726399458944798,213.47522522660438L4.482600807677954,208.15882779227104L5.799593663192354,204.5168612137204L5.189707955461927,204.07570910302456L8.005543695413508,197.10016933374573L11.793329522479326,187.71696269628592L16.13740593555849,173.49719257932156L18.588374868035316,169.49748806189746L19.73072816315107,167.63330256030895L25.760461219586432,157.00179198361002L31.15210562653374,145.23977309826296L37.01991289714351,132.8258666357724L37.60172868531663,131.59498266573064L37.69511035073083,131.39743698900566L36.15094535052776,127.40278256300371L36.84371653327253,125.02405091270339L39.345571023528464,123.35018343571573L40.91740024625324,121.6934046279639L43.510873243096285,123.03464604786132L44.29681502946187,120.66778557864018L45.239893962512724,120.98338543705177L46.73911793460138,117.36033451277763L45.252471419633366,116.6825390389422L52.13633071258664,100.0208100398304L57.10963356215507,87.17204881680664L57.40882774954662,86.510714985081L64.39071081986185,71.0358086079359L66.22512187808752,71.12106610671617L69.11102536250837,68.20375648268964L68.81894183089025,64.49363741080742L68.8976169108646,62.44226414721925L67.93825351295527,61.79068642202765L75.56654171366245,48.25850513810292L93.88214854430407,15.768291681306437L95.6162372030085,12.692230846965685L97.31617512763478,9.676769365323707L98.34664622845594,7.3550165188498795L98.60407653881703,6.774999999906868L103.30002902157139,9.313013386679813L107.85038991144393,11.297843289677985L108.6571197953308,11.731383138569072L110.61236881522927,12.773377040401101L115.25604805268813,15.199802970513701L115.73655598296318,15.450028428807855L123.5981673297938,20.018816051771864L124.82521600543987,20.878850358654745L128.19075245654676,23.237725355429575L129.52901270706207,24.19860095018521L132.54996399290394,26.473417969071306L136.51615795237012,30.258819232229143L138.03595089144073,31.78198175074067L139.54271944623906,33.23784055223223L140.1544263656251,33.87407873466145L140.69963356573135,34.43922049878165L141.97272725810762,35.758890417870134L151.3662503574742,45.49663307610899L155.98178487154655,50.29617558652535L156.78347936680075,52.00891303631943L157.3326547218021,53.9103324143216L157.57668690488208,55.88743212004192L157.50616914837155,57.86581775918603L157.24314890406094,59.2179377094144L154.6210462214658,67.20374652568717L151.6816450530896,76.0262110286858L150.9174891609,79.30414699867833L150.27835958183277,82.60893343156204L149.76518433867022,85.93576630472671L149.37869878835045,89.27980650693644L149.11947383754887,92.63619665312581L148.98788524407428,96.00005789194256L149.13535930286162,105.21412524650805L149.8993327798089,119.32833465852309L151.07068874081597,127.15657723147888L151.81103018822614,130.043800107087L152.1575552127324,131.39518862927798L152.59353690454736,133.35333759407513L152.86633718560915,134.36284304282162L157.7109592006309,155.87357872654684L159.69121543713845,164.30435334844515L162.7779488263186,177.92733052943368L162.664639732684,179.90786717657465L160.780651875888,185.96361410291865L158.8138694590889,192.28553657012526L157.11991710099392,196.87414503493346L155.42596514115576,201.4627172505716L159.68832785449922,202.41232374380343L176.33962700644042,206.12221646599937L181.45782090409193,208.73757387616206L182.5173991927877,209.27934172085952L178.70619687181897,228.84436030802317L178.6367398489965,230.10506144806277L172.65036158123985,241.72498266061302L166.66311710397713,253.32129676488694L161.38315186626278,263.6481485401746L159.12440339592285,264.2249999998603Z" /></svg>