<?xml version="1.0" standalone="no"?><!DOCTYPE svg PUBLIC "-//W3C//DTD SVG 1.1//EN" "http://www.w3.org/Graphics/SVG/1.1/DTD/svg11.dtd"><svg width="187" height="165" version="1.1" xmlns="http://www.w3.org/2000/svg" xmlns:xlink="http://www.w3.org/1999/xlink"><path stroke-width="1" stroke="white" fill="steelblue" d="M182.1700945844641,93.0762967292394L182.03245298884576,93.42453121487051L182.32499999995343,93.81628496260964L182.20818474213593,93.84027438680641L182.0763096595183,93.71944842411904L181.97196570027154,93.7657696660317L181.8395669279853,93.91103236656636L181.82003627094673,94.04555777079077L181.70500189292943,94.09008716605604L181.5572790465667,93.97469040990109L181.45628621592186,93.99471420203918L181.23275424464373,94.0699628056027L180.919685011846,94.27479006978683L180.7151968618855,94.44767057942227L180.5171903000446,94.5179971861944L180.2344681932591,94.57188194291666L180.1210659633507,94.7740263515152L179.92300722684013,94.90204612811795L179.57535239233403,95.17066698975395L179.3224259253475,95.30531848216197L179.1563651866163,95.3500336050929L178.99667767249048,95.41398444841616L178.82103843428195,95.48525270420942L178.60697581415297,95.63797602950945L178.48559714923613,95.70196170857525L178.3577958678943,95.80440271581756L178.1637362598558,95.90591403949657L177.55906265910016,96.43825291088433L177.37412875751033,96.18168383909506L177.1929170928197,96.14935301893274L176.98466022277717,96.14927253776114L176.66574216535082,95.7771978630335L176.53181132441387,95.60400031667086L176.2354089706787,95.49135714099975L176.19978529110085,95.59728740149876L175.79140875156736,95.29563542979304L175.2868086466333,95.48106163213379L174.85243969626026,95.67296501720557L174.607587470382,95.7240468605014L174.25840344512835,95.90317989705363L173.93909780745162,95.95416701029171L173.57333794148872,95.91584524852806L173.57132966211066,96.09248175055836L173.3921661223285,96.09231782046845L173.39214691641973,96.11347759360797L173.36579573526978,96.11873973128968L173.3814534310368,96.28274331460125L173.95063674548874,96.19333901803475L173.9610888971365,96.29385848972015L173.42351786454674,96.38329166380572L173.43916019058088,96.56316864892142L173.29161342413863,96.56832270880113L173.27065079845488,96.4413449326239L173.09676444990328,96.435896956129L173.08631483605132,96.33537755004363L173.30764832464047,96.31970913277473L173.2867480891291,96.1239629452466L173.24460679898039,96.10805364270345L173.2393594905734,96.08159632625757L172.99168906745035,96.08666268907837L172.99324239278212,95.87805904523702L172.91754535614746,95.86990439443616L172.64299099106574,95.85683514509583L172.45707556739217,95.73423958173953L172.1830899809138,96.04230243136408L171.84455239708768,96.17660740073188L171.53161140886368,96.2532431773725L171.1548112508608,96.32982210227055L170.70725378935458,96.25418248449569L170.70772756886436,96.46402569906786L170.51042491162661,96.66730791464215L170.97142648970475,97.26530643022852L170.94473181670764,97.28313860172057L171.09870550531195,97.45883851105464L171.2292210322339,97.35183441758272L171.34470578259788,97.48286629203358L171.0540065235109,97.72362687819987L170.95038052398013,97.59260594841908L171.05421571794432,97.49153190068319L170.89135254867142,97.31582117491052L170.87354920775397,97.3336577154696L170.413695305062,96.76696738344617L170.25396189995809,96.9315435885801L170.36867684451863,97.16881988939713L170.06193227507174,97.45699003365007L170.00374607049162,97.50818635773612L170.33143165177898,98.16634708544007L170.46841691888403,98.44615023204824L170.3524526071269,98.49527493462665L170.19255564990453,98.17220239370363L169.90660683065653,97.593654573604L169.90635003620991,97.59387579720351L169.79993283143267,97.6875118886237L169.61472010950092,97.73221093608299L169.5265530613833,97.66083350637928L169.21398613078054,97.63307936003548L168.77198186481837,97.61607207663474L167.98020665574586,97.63458733313018L167.7976091610617,97.4402199878241L167.71945706568658,97.52006477070972L166.75451617635554,97.33862540576956L166.67139432980912,97.46675082217553L166.77350777911488,97.52453492139466L166.67523821187206,97.70487972153933L166.54993283742806,97.62689645547653L166.55637518747244,97.5628004403261L166.44791054469533,97.46655056075542L166.17932675237535,97.92783447285183L165.97509124630596,97.8250898719707L166.39505857421318,97.12448960726033L166.31610635004472,97.1597972397285L166.18044261692557,97.09024506932474L166.2235322999768,97.2201515318884L165.25960574869532,97.27884311138769L165.08386227762094,97.02661530559999L164.47796976403333,96.27192299923627L164.4888850907446,96.13110747636529L164.2731021711952,96.09841497711022L163.81985518860165,96.14134521168307L163.43675164150773,96.17891950870398L163.3939484912553,96.18252212312655L163.11840403347742,96.20572061595158L162.74608676781645,96.24871837577666L162.29805344325723,96.50288867365452L162.1901682713069,96.47571254649665L161.70783072238555,96.81456251093186L161.4724449692294,96.63756852803635L160.99783486686647,96.43674391246168L160.12394294369733,96.25724192184862L159.30916227289708,96.35401803822606L158.62378070381237,96.55381877583568L157.95435970486142,97.01362354418961L157.79761586966924,97.33304819045588L157.66813098045532,97.33293527882779L157.474096631282,97.10527964745415L157.2855047408957,96.82347103310167L157.17762957699597,96.78545987108373L157.09128280205186,96.81246819687658L157.07500906015048,96.90994861518266L157.1504357914091,97.03458671891713L157.3174524595961,97.31096592650283L157.31194232509006,97.44636626969441L157.26500314223813,97.48337064421503L156.11431704973802,97.98544889158802L155.999324216682,97.86017657018965L154.97273546340875,98.18667248130077L154.5026994800428,98.23440942293382L154.17656075011473,98.2630117906956L153.9656404897105,98.14728201489197L153.8422256205813,97.98404620515066L153.74218527623452,97.81598533477518L153.41499322850723,97.88875636522425L153.18436400970677,97.81903943733778L152.834324230731,97.55894400546094L152.30102161347168,97.30231086999993L152.20301666815067,97.116729012836L152.22151083138306,96.8998065822525L151.96427515579853,96.79411828750744L151.19703761657001,95.7199173689005L151.39902595971944,95.14389513575588L150.87641771428753,95.16172693879344L150.65932070673443,94.83207777404459L150.43909131275723,94.37932206434198L150.18043025402585,94.00357007884304L150.19077734166058,93.64512322517112L149.8353848925908,93.69514744653134L149.2316474916297,93.0494841208565L148.94415431277594,92.74110761427437L149.02317917055916,92.46841130629764L148.637441482977,92.47123292053584L148.40744191792328,92.23031392003759L148.06241765909363,91.89300356665626L147.74616080283886,91.56534314993769L147.77005942061078,91.3289194717945L147.68010688683717,91.24120287282858L147.40098859393038,91.41098623746075L146.96977018244797,90.90990656605572L146.54813119815663,90.42809442061116L146.8648838166846,90.16837591861258L146.71877014648635,90.0310474531143L146.49711288983235,89.96370924432995L146.00165273650782,89.57097469369182L145.84856804349693,89.65717227829737L145.41781695111422,89.09752204458346L145.68488399701891,88.87243483538623L145.46327281947015,88.63328296723193L145.26182191976113,88.43438909712131L144.93268529715715,88.19994798579137L144.75245682423702,87.92579439864494L144.46634007792454,87.56557490755222L144.38593575032428,87.62231502210489L144.3580547941383,87.59988978464389L144.21848000533646,87.71179308090359L144.99880544375628,88.65902159558027L144.8927240340272,88.74294816714246L143.967497344187,87.60516508831643L144.04008846648503,87.53801057150122L144.162736625236,87.65013286509202L144.31347271130653,87.53823885277961L144.2521402820712,87.49338280019583L144.33819938171655,87.43074850164703L144.29000455210917,87.28332104466972L144.08646642311942,87.0429637276684L143.8829391609761,86.7021819568181L143.6709855145309,86.79613230700488L143.52174974686932,86.90184286312433L143.3272616605973,87.06650627643103L143.13463153410703,87.21362108347239L143.03455074428348,87.29421953417477L142.91187299741432,87.39302303048316L142.7812270318973,87.49823953671148L142.647002938902,87.60634043172467L142.52741591155063,87.70265671698144L142.40209681511624,87.80358745111153L142.34853195084725,87.84672526115901L142.1485715251183,88.00776867527748L142.02499832602916,88.11850451942883L141.94775200553704,88.7118589875463L141.88719187071547,88.69978223904036L141.95812018349534,88.07248512384831L142.18495552951936,87.89228663564427L143.1281003881595,87.1149704492127L143.1988916482078,87.0566254130681L143.2713963148999,86.99464389568311L143.31273850833531,86.96279608280747L143.38614471326582,86.90229791624006L143.4977370086708,86.81032552852412L143.5911828117096,86.61531163062318L143.71591831441037,86.53339755150955L143.73431366030127,86.44613901415141L143.41497106099268,85.99878772953525L143.6431111881975,85.81588170482428L143.58227636909578,85.67112759500742L143.25680028751958,85.04607334799948L143.10948283661855,85.17536970222136L142.80645442166133,85.42020066216355L142.6781582023832,85.52385835492169L142.63097621087218,85.56198680229136L142.36774854036048,85.77465633040993L142.3191945379367,85.81444416262093L142.04039587522857,86.03914325032383L142.00074638432125,86.07117430726066L141.70996792905498,86.30611756106373L141.66977446660167,86.33858832574333L141.40227141341893,86.55471920018317L140.7820480337832,87.05583559020306L141.08331276389072,87.44666867679916L141.08466481923824,87.51666939887218L140.90690878074383,87.6647204052133L140.22304261947284,86.81445581256412L140.42740715068066,86.65392225267715L140.74185568740359,87.01278404903132L141.1839260380948,86.64561993218376L141.30647309706546,86.54383924230933L141.9168457398191,86.03690310535603L141.91868290957063,86.03538033334189L142.20725123555167,85.79571409343043L142.263607699133,85.74914334752248L142.784504192241,85.31774128682446L142.76024372980464,85.28114260887378L143.20409295579884,84.92205160582671L142.91477654862683,84.35072733202833L143.1167523053591,84.18090092641069L143.05638712161453,84.02685814083088L142.96817863319302,83.95525093458127L142.88419236650225,84.02763784318813L142.6387036566157,83.94436159927864L142.08392969385022,84.39165403644438L141.51095655560493,84.85361502418527L140.95492916321382,85.30192076566163L141.0148115918273,85.38812132112798L140.967814212956,85.42643176738056L140.46336877474096,84.78843320318265L140.526742234244,84.74283988331445L140.87782928691013,85.18982163461624L141.14841553248698,84.9775969334878L141.19162582908757,84.94370426380192L141.43336921173614,84.75409789415426L141.460626559332,84.73272002051817L141.525739959965,84.68165379815036L141.836979826272,84.43753511432442L141.89633446547668,84.39098515870865L142.06218986021122,84.26090188403032L142.42248203326017,83.97831714714994L142.37290162651334,83.90236660867231L142.41375756333582,83.86613692712854L142.4570237151347,83.90815096432925L142.4866282690782,83.87918412822182L142.54743104986846,83.94273367690039L142.58218564634444,83.91888796980493L142.56049441720825,83.88501466260641L142.58499768585898,83.86122066833195L142.53444807609776,83.79762401705375L142.6415782313561,83.67873296217294L142.7712069422123,83.56958557281177L142.84571544843493,83.51180453915731L142.71362247579964,83.39559271602775L142.92880343296565,83.12766237455071L142.48973445984302,82.43729652574984L142.44381601951318,82.32831890234957L142.0936689057271,82.63038273894927L141.55721501196967,81.51480329746846L144.28566564334324,79.18693210207857L144.96123464568518,78.63047571759671L146.21309303527232,77.59933674673084L146.31548321910668,77.5128724196984L146.21389594028005,77.36490662232973L147.4387810928747,76.35910891034291L148.70286735327682,75.32112247197074L149.9913890195894,74.26308514311677L151.29517407441745,73.19251824429375L152.56991397438105,72.14580979742459L153.86739664227935,71.08043910362176L155.0628306226572,70.01725294010248L156.31766167766182,68.90124736379948L157.54705171164824,67.80787018674891L157.55428961513098,67.80143614951521L157.05182716762647,67.19945040912717L156.51811849640217,66.56002844299655L156.26468384976033,66.7969574224262L156.17015368310967,66.70577991916798L155.88544015068328,66.95835563165019L155.82951578119537,66.91148712381255L155.54480665770825,67.15938791492954L155.47492916765623,67.07037263887469L155.18091461068252,67.29485046237824L155.14363303140271,67.2573622261989L154.83097323059337,67.4724600990885L154.59758330212208,67.7016757739475L154.68145939492388,67.79070560183027L154.11673062556656,68.26309315979597L154.17730514943833,68.32869133434724L153.5332568619633,68.84315455297474L153.49131864897208,68.80098111770349L153.27197802183218,68.96933903789613L153.32787750766147,69.0443005868583L152.79113728157245,69.51671266445192L152.76318307191832,69.48391533608083L151.62911527376855,70.38187249947805L149.42630623705918,72.15911949906149L149.48077551811002,72.24144182278542L148.8314701084164,72.75782252318459L148.2860560446279,73.19157464144519L147.46021649427712,73.89661088143475L146.2158907421981,74.95891340624075L144.91624159243656,76.06845671747578L143.66501465189504,77.13667161838384L141.49452933081193,79.07228485675296L141.543678990216,79.21066178823821L139.8870838629664,80.60415056435158L139.03162959951442,79.80895016391878L139.01011921057943,79.82660164599656L138.79579781153006,80.00243698092527L138.8205231995089,80.03009794707759L138.88786115450785,79.96599371221964L139.00321720400825,80.0899372502754L138.89203074754914,80.201570688223L138.9599700831459,80.26606202870607L139.024617733201,80.28531131401542L139.05725216772407,80.25017592855147L139.64716387022054,80.83279147476424L139.60841387615073,80.87515318801161L139.14299293939257,80.39791893874644L139.0486426440766,80.381897746498L138.75316984113306,80.67341701377882L138.56714344781358,80.85696080859634L138.46716818853747,80.9555952255032L138.36399621592136,81.05794653875637L138.2723329012515,81.14888464662363L138.2039970876649,81.21230411739089L137.9823143700487,81.41805149245192L137.72641928168014,81.6555433422327L137.71334603027208,81.70807464397512L137.9450872199377,81.95903615304269L137.90634307678556,82.00139884938835L137.47175856103422,81.54459787317319L137.4079523284454,81.48728255421156L137.37288974429248,81.43909674035967L137.4055146840401,81.40396779563162L137.6330807307968,81.6374607081234L137.83933604025515,81.4376468406117L137.91796576790512,81.36147322240868L138.04179208923597,81.24151509965304L138.19010775908828,81.09783014806453L138.30540721322177,80.9891394226288L138.39519906172063,80.90448790055234L138.46943180653034,80.83148441719823L138.66121473372914,80.64286545992945L138.91546447901055,80.3928135544993L138.892532621976,80.30958828583243L138.5847310498939,80.0106230963429L138.69386081490666,79.89797685891972L138.74123238178436,79.94713865112863L138.94771740195574,79.76071183438762L138.96968648210168,79.74087478153524L138.70319280331023,79.46927046444034L137.94981344073312,78.97141380223911L137.80895141488872,79.0914162103436L137.82053455308778,79.10423926223302L137.3499049601378,79.52139764686581L137.27729590126546,79.57948590489104L137.18000617518555,79.66739272626L137.0701279535424,79.76666933277738L136.98066653788555,79.84681546548381L136.7180391398142,80.0820990614302L136.71840322128264,80.15925120894099L136.92332422256004,80.37125027386355L136.85296192293754,80.44667769045918L136.5604768905905,80.13735772157088L137.13424141850555,79.61364369402872L137.2334838679526,79.53086090259603L137.90225665579783,78.93863947148202L137.7579679102637,78.84514853480505L137.6515956056537,78.93576488998951L137.4709721118561,78.82357070740545L136.8960466059507,79.3186567700468L135.79023790120846,80.30551003434812L135.2696056793211,80.01162795210257L135.33347091294127,79.91030645882711L135.79563021298964,80.20947586966213L136.84632619004697,79.256142193306L136.99237176170573,79.1326456288225L136.96054628357524,79.05792413896415L137.1254092240124,78.9300005894911L137.0245247366256,78.80719863361446L137.09366581140785,78.75389903693576L137.25299576454563,78.90342671007966L137.37532824033406,78.79147994131199L136.86534691037377,78.47625697535113L136.99831978138536,78.35364556222339L136.83364156656899,78.24146452132845L136.7052540333243,78.18187873411807L136.0897353765904,78.00075385288801L136.00122871698113,78.19355795363663L135.4487466084538,78.0576879553555L134.89025895966915,77.95710322613013L133.64451259712223,77.63612114780699L133.14184154960094,77.42165770439897L132.56360357039375,77.0673941844143L132.2305263938615,76.78347220673459L132.09564121457515,77.08216086251196L132.2231133892201,77.19609313091496L132.74014923803043,77.56644800296635L133.1722956415615,77.73753993501305L133.20054037921363,77.86561830656137L133.78868481924292,77.93012146744877L134.8372581686126,78.25110442045843L134.7875304738991,78.40046574900043L133.94443482143106,78.1294457007316L133.13663503417047,78.0220759503427L132.01044423971325,77.28129155264469L131.4864622023888,76.73307516914792L130.77837327634916,75.99973797932034L130.4952318854048,75.5868902996881L130.3749724914087,75.31644724783837L130.31116550095612,75.34485656407196L129.7305538400542,74.7112223469594L129.85110046324553,74.61883106952882L130.51667019055458,75.35924637084827L130.72316409659106,75.17007994075539L131.194766539149,75.83133270364488L131.0150676582125,76.02477696342976L131.4724581448245,76.519635996141L131.72067981446162,76.28506690182257L131.38394637103193,75.8948334006418L130.84955580881797,75.11010428750888L130.5774530841154,74.43566232637386L130.90319864830235,73.91180591360899L130.80152743472718,73.8351025400043L130.3044918482774,73.9934277550201L130.24316209810786,73.89817083333037L129.77354422124336,74.01260822531185L129.83239117980702,74.34494612985873L129.6786905960762,74.36856002500281L129.51450144895352,72.70696381144808L129.68000201968243,72.7070954242663L129.76183681446128,73.87018902032287L130.18994042131817,73.76685871402151L129.904660895525,72.64793855411699L129.93290204077493,72.40275103607564L129.50982441852102,72.41657005395973L129.5024987832876,72.48229755210923L129.4151843547006,72.4968341110216L129.3219118952402,70.83886568827438L129.518346394354,70.83902180628502L129.50265434011817,72.28510045498842L129.94890985853272,72.26378098115674L130.13491497345967,70.64883070308133L130.16703858150868,70.00939649651991L130.1745602018782,69.35159826790914L130.15999008715153,69.08456912948168L130.15031507931417,69.01363817308447L130.05815411638469,69.01356475549983L130.0581945256563,68.96243602709728L129.95634308288572,68.96235491664265L129.94901337381452,69.03538884143927L129.53571828914573,69.02473325122264L129.52333082264522,70.6824432372814L129.43466980109224,70.67866518779192L129.46168862475315,68.8816250563832L129.9637150276103,68.83820428026957L129.94912877847673,68.889315884182L130.0800936568412,68.87481129844673L130.07286806305638,68.80907714381465L130.1819769149879,68.81600564316614L130.22166396747343,68.56826158426702L129.24366867513163,68.5747012856009L129.22919969412033,68.47244233809761L130.23769201047253,68.43441088648979L130.26548808789812,68.13873542353394L130.26591444876976,68.13419601946953L129.1057453842368,68.18750448193168L129.10583168652374,68.07795114137116L130.02934475662187,68.05587833790923L130.02916273922892,67.96031279716408L130.28533324488671,67.92768042703392L130.59196656639688,67.40566379952361L130.36223193682963,67.20479173134663L129.92110121058067,67.52352590294322L129.95030012563802,67.40669153802446L129.7611356107518,67.41384127386846L129.7537773081567,67.51608687199769L129.6155228644493,67.54519105964573L129.63137510744855,65.89459041654482L129.78420475358143,65.83628247873276L129.73939214949496,67.30427218973637L129.943086023035,67.32634633834823L129.95770487881964,67.23871449418948L130.19969164405484,67.06268335718778L130.0565253609093,66.93750494788401L130.16004746232647,66.0195876127982L130.16244979773182,66.007321306417L130.45150843681768,64.53186968603404L130.2144399281242,64.58770197705599L129.7552477279096,65.65366770600667L129.6097956674639,65.5805171384709L130.03253358707298,64.6094655370398L130.20000017643906,64.44161474873545L130.22373852680903,63.12583387296763L130.24470027221832,62.29574088024674L130.2603804646642,61.688178455340676L130.36952106974786,61.68096226931084L130.36098993365886,62.35169674971257L130.33095378323924,63.415351021511015L130.31640628294554,64.44170752950595L130.47822534031002,64.39549624489155L130.5422703930526,63.98598840582417L130.6613629795611,62.887948236224474L130.7017394915456,62.51566320587881L130.76381266780663,62.31212727504317L130.84655067668064,61.97069327443023L130.88749616226414,61.38869365025312L130.70808347302955,61.37648959038779L130.70683752500918,61.39484157800325L130.6243798934156,61.389203611324774L130.60351639741566,61.69654113287106L130.52253532543546,61.64833808896947L130.52698332763975,61.59286942516337L130.5294119870523,61.562560462305555L130.54403597913915,61.38028503404348L130.55335428286344,61.26414091483457L130.57295492565027,61.019810137251625L130.57937568821944,60.93975057825446L130.58336867945036,60.89003616338596L130.59978000278352,60.68540924141416L130.6043715699343,60.62819189269794L130.61833280167775,60.45413797115907L130.6236422494403,60.38796936604194L130.71832846390316,60.47160798421828L130.63296856050147,61.31904470635345L130.88967935024993,61.33969788684044L130.86272695986554,61.07038826440112L130.95073610334657,60.57890556540224L131.29577706736745,60.95172484649811L131.41444541839883,60.79659439556417L131.23935275233816,60.605004711222136L131.30805758060887,60.56376837546122L131.2888884600834,60.545217462058645L131.0400015747873,60.304246742336545L131.0226884026779,60.32226067435113L130.6689703669399,59.97389957975247L130.71345697791548,59.93124999469728L130.83547095564427,59.81427520993748L130.8779686583439,59.773531162558356L130.99221170909004,59.66400167613756L131.0408518172335,59.61736879940145L131.09086790075526,59.66665300776367L130.78365731006488,59.98087179363938L130.98612800071714,60.18036863807356L131.03798439970706,60.20904841917218L131.1763154026121,60.345348629081855L131.15550939366221,60.36663096467964L131.24214747018414,60.45199155926821L131.25877305975882,60.4349871823797L131.3575713390601,60.531651041674195L131.628254281939,60.01955247556907L131.70984796975972,59.86518436297774L132.05775827838806,59.265335825359216L132.03997507627355,59.2544385221845L132.0363195258542,59.25220041544526L132.0301460577757,59.24841827817727L132.02962014341028,59.248099075310165L131.6674529829761,59.02619929696084L131.7594007164007,58.87495738937287L131.77182978769997,58.88257084277575L131.78035565139726,58.86853367855656L131.72632226964924,58.83542792452499L131.370593656844,59.36172823057859L131.26176789659075,59.29120166259236L131.40310990071157,59.06877945145243L131.4651146606775,58.971205968555296L131.5371772404178,58.857798747107154L131.61486120033078,58.735556302330224L131.66066286870046,58.663489936705446L131.70672521111555,58.59099471359514L131.83450532722054,58.67643143993337L131.7897106531891,58.74395316946902L131.8369364987011,58.775465137849096L132.1565094878315,58.988715621468145L132.1579570689937,58.98967961379094L132.1616696625715,58.992157781816786L132.16489235288464,58.994303801766364L132.19604344968684,59.01509314138093L132.31134842074243,58.52342700934969L132.52193617011653,58.323050756240264L132.49523731082445,58.31366416360834L132.48303543851944,58.309375827317126L132.4680068868911,58.30409551423509L132.1936704958207,58.20765223351191L132.2072737813578,58.168873664253624L131.93016911071027,58.070915962482104L131.85960981494281,58.04989484287216L131.83879258373054,58.092043597018346L131.7885217333096,58.2353459338774L131.73860132682603,58.21769971601316L131.74692629056517,58.19396638445323L131.7605211501359,58.15063309771358L131.8206800466287,57.958896710915724L131.87468011543388,57.786801196140004L131.89152994914912,57.70855637532077L131.9341197067406,57.510753460170235L132.01746326097054,57.51082027927623L131.9592876720708,57.74119322918705L131.88753798464313,57.970285597024485L132.1183812370873,58.03819524386199L132.1054178121267,58.0825919531344L132.20480558264535,58.11182913577068L132.21534016705118,58.07575125666335L132.32931880635442,58.1092787203379L132.32020135672064,58.140496302221436L132.54634876683122,58.20702442730544L132.5728033677442,58.21480394588434L132.59496376285097,58.22132620145567L132.61363840883132,58.226821662916336L132.86001611716347,58.04507106958772L133.360671941482,56.848049025051296L133.2527821533149,56.82913538705907L133.21963797241915,56.82332704629516L133.18191673699766,56.8167162121681L132.98035467491718,56.78139609779464L132.98353924404364,56.76308807806345L132.62308896350442,56.69991362543078L132.6180747404578,56.72872983929119L132.23334281757707,56.633211242908146L132.09036774444394,57.21120063550188L131.97638050484238,57.1753443745547L132.04144604853354,57.01021780134761L132.06900661502732,56.928695352893556L132.24214523867704,56.20353965292452L132.25898083398351,56.15147833808442L132.33956628816668,55.80521846417105L132.42424461909104,55.82319952227408L132.25548656791216,56.55063350559794L132.59812753548613,56.63578473881353L133.00219077419024,56.709743935934966L133.2403192028869,56.71598784587695L133.131610243232,56.480193299852544L133.08470739028417,56.14338740671519L132.93292666017078,55.859118467225926L132.89714802749222,55.45051664143102L132.60300122527406,55.485247327393154L132.5715181932901,55.52732103902963L131.9896546502714,55.58473844442051L132.00545895873802,55.47951148770517L132.55586757103447,55.43259427029989L132.99161160195945,55.34682270389749L133.07505886192666,55.096242618979886L132.77161995507777,54.60759586241329L132.75597017473774,54.28036959396559L132.8110024970374,53.937980620685266L132.76696001866367,53.64367524909903L132.7411169828265,53.18585615089978L132.49517532333266,52.66472132669878L132.3905896623619,52.35417588034761L132.31752810877515,51.948935790744144L132.08506382245105,51.45759105074103L131.25051169371,52.13018818962155L131.32114404509775,52.31881938248989L131.360677225166,52.306458158040186L131.3756011945079,52.356590109848185L131.45278414076893,52.615816445846576L131.46661893307464,52.66229997339542L131.5417597235646,52.91466778784525L131.6446721254615,53.260317532520276L131.69127388502238,53.424050683534006L131.7080655710888,53.483044210850494L131.77513669448672,53.6534436957736L131.82543538761092,53.78123469057027L131.8420234954101,53.82338702926063L131.94365057279356,54.18040747413761L131.81168241985142,54.218263134214794L131.5817915945081,53.57938052152167L131.57059711863985,53.51759748425684L131.46163682843326,53.173800275224494L131.38734765187837,52.93940493048285L131.36691860749852,52.87717051265645L131.1985610560514,52.364304197079036L130.94636594987242,52.500265475478955L130.92975430027582,52.46897493544384L130.86217434628634,52.52052830706816L130.22498634969816,53.00665166246472L129.94968973495997,52.64298770314781L130.55251809826586,52.183081253722776L130.643579820171,52.11360917118145L130.29237094090786,51.649671113089425L129.8722136943834,51.1032480179274L129.75882571248803,50.9534663039376L129.85768436529906,50.878050519386306L129.94765406730585,50.99689489233424L129.96898506343132,51.024436093488475L130.10752584674628,51.21084105843329L130.1337989657186,51.24570441566175L130.29864327819087,51.4644557631691L130.33159828657517,51.50818562746281L130.38857814407675,51.58380045226659L130.61603719048435,51.885644911642885L130.68487764365273,51.976996327837696L130.71006067335838,52.01041034027003L130.73951677395962,52.04854655783856L130.70804235036485,52.076154921902344L130.78110827109776,52.1716548439872L130.89705296664033,52.323184342560126L131.98589317209553,51.40032894353499L131.7416254801792,51.09076325461501L131.30690789979417,50.65892312704818L130.99790044332622,50.33769013293204L130.33791068335995,49.75307592158788L129.92927135294303,49.48437966790516L129.7144289748394,49.39475483447313L129.57749625045108,49.34298345920979L128.99651068192907,49.83633055756218L128.95696581242373,49.86799276096281L129.01221034652553,49.940575976710534L129.17480199446436,50.15418439757195L129.20288023469038,50.19107501293183L129.36369924701285,50.402362407097826L129.58582841255702,50.694193544622976L129.6424330038717,50.76725781214191L129.53733803826617,50.84932157365256L129.4587135061738,50.74784449161962L129.42597544117598,50.70505632716231L129.2673532574554,50.497757534874836L129.23342461069115,50.453426365333144L129.04354230116587,50.20527547644451L129.00776372215478,50.1585185455624L128.84314876119606,49.94339064107044L128.81484991085017,49.90640903587337L128.6493473284063,49.69280110558611L128.76496699423296,49.60251874354435L128.9268490395625,49.81145049116458L129.36941440182272,49.41411851558951L129.19029806554317,49.34171569283353L128.92427902913187,49.25334712455515L128.68798055755906,49.50922659630305L128.712054707692,49.53747709142044L128.6594218876562,49.59829636171344L128.22638315992663,49.436251061444636L128.12520525755826,49.53792047168827L127.98082556191366,49.67429171508411L127.83588363660965,49.802618651272496L127.80212855723221,49.83447368131601L127.51563572487794,50.0793082047021L127.15527883620234,50.389821758610196L126.84927122207591,50.629779522219906L127.06001906067831,50.9383169109351L127.02760371868499,50.966483737836825L127.00149918987881,50.92339430307038L126.80433088220889,50.69107478231308L126.65244328265544,50.51210920576705L126.58840388176031,50.452379510970786L126.62241108954186,50.423716215242166L126.79260887135752,50.56019819484209L126.94439695496112,50.442490129644284L127.11436058377149,50.3011226397939L127.4100695354864,50.04558427995653L127.44633228762541,50.01424739032518L127.76193654199596,49.74152039125329L127.80616948986426,49.70329320925521L127.96202690037899,49.56503307429375L128.06569603469688,49.4730710721924L128.1445887761074,49.403086884267395L127.91862736362964,49.31281021988252L127.48798271809937,49.27548388179275L127.23664743825793,49.228365988412406L127.24846950831125,49.19588284738711L127.22878921160009,49.19252744401456L127.1846954576904,49.185001105390256L126.91597106261179,49.139142086263746L126.87808357330505,49.132680835260544L126.5862941374653,49.08288665712462L126.543920836295,49.07565644275746L126.41313567297766,49.053337412828114L126.19074843684211,49.098593832575716L126.14690768916626,49.107511444191914L125.80617434805026,49.1768558769254L125.48597012425307,49.24201776471455L125.36819976620609,49.9561528939812L124.84597825672245,49.92902131093433L124.83637643558905,50.31604129294283L124.8339847229654,50.412240437202854L124.74547899718164,50.408997227437794L124.76560545136454,49.950372924417024L124.76980894256849,49.85456337011419L125.30034049553797,49.897188586590346L125.33270566933788,49.607007212674944L125.37862925115041,49.19524759682827L125.72513973165769,49.10654267060454L126.01988211786374,49.031088331277715L126.4080315225292,48.957757564174244L127.23175654374063,49.10355868309853L127.84005853231065,49.1887648300617L128.00562975439243,49.25109867710853L128.59977069933666,49.482852831308264L128.87259961245582,49.22048653109232L128.77113115525572,49.125641137885395L128.71353152295342,49.051922560000094L128.58255198784173,48.972890416160226L128.43820466200123,48.94425546601997L127.87408269615844,48.56800360890338L127.37352822499815,48.439220961066894L126.68673838110408,48.3601728118083L126.14709363138536,48.18240438430803L125.59121951641282,48.1140377590782L125.02838152181357,48.053449086641194L124.2693943066406,48.170979777991306L124.15254619525513,48.189074470079504L124.03235692589078,48.15039126633201L123.75721919111675,47.95190369262127L123.37676468468271,47.58625895858859L123.20908883656375,47.39621229885961L123.05361846496817,47.206175107188756L122.83709973673103,47.04672411366482L122.69374265277293,46.9761588909314L122.45883743313607,46.911647374305176L122.29406985506648,46.90845863355207L122.08704101614421,46.93557989737019L121.8543492606259,46.91924139900948L122.01984605001053,47.32007113279542L122.08126328740036,47.30162231926806L122.19161509216065,47.54213025190984L122.11175890511367,47.57905185825075L122.05046608368866,47.424890105670784L121.38700927980244,47.75726612788276L121.3256980953156,47.633923507790314L121.91545568517176,47.313825753866695L121.74996154906694,46.91299606242683L121.4183441871428,46.93739684295724L121.21577188535593,46.83860669864225L120.93322235922096,46.93702220110572L120.40482462343061,47.31882374975248L120.281848232029,47.534490558027755L120.31217582768295,48.02151633196627L120.36244387016632,48.27897668903461L120.3882541594794,48.41119733871892L120.47731761093019,48.88468527721125L120.76124481338775,50.133674156619236L120.91194121807348,50.6727501055866L121.24040489038453,51.359721787972376L121.54169436584925,51.75916036890703L121.869245843729,52.20200382225448L122.27975010051159,52.70810342222103L123.05831023678184,54.397786696848925L123.75102644850267,55.9209519601427L124.14930324163288,57.037032910011476L124.48662689077901,57.5612762135861L124.76634044706589,58.451879717147676L124.8262043512077,58.42971096158726L125.12252856441773,58.3199788487982L124.80310748232296,57.45068175549386L124.75866252777632,57.30691301179468L124.87355664349161,57.26582984608831L124.96795626200037,57.23386139422655L125.05671295290813,57.469254692754475L125.06183963065268,57.485033818054944L125.70703316002619,59.211214814306004L125.64143125736155,59.226355497405166L125.32770966156386,58.463806439976906L125.16136948415078,58.52738617284922L124.89090927294455,58.63075537967961L124.8420829026145,58.649416880856734L125.05639542109566,59.24461153126322L125.11154859658564,59.38643541306374L125.1541548036621,59.528425494238036L125.36666943196906,59.71238677526708L125.58239684131695,59.9916530411283L125.7181973066181,60.38951319741318L125.90166041144403,61.380220998195L125.99676920409547,61.58597413197276L125.99785667052492,61.58826760179363L126.04843641776824,61.72496721422067L126.14116087963339,61.79669400196872L126.11949645361165,62.119094960042275L126.65476361697074,62.155344259605044L126.81165503687225,62.32026153971674L127.02555843396112,62.58553330338327L127.28225753037259,62.89382376807043L127.36782905185828,62.994203513109824L127.11079567816341,63.108639434562065L126.86871929134941,63.23611362001975L126.62136271310737,63.33793513366254L126.4248141401331,63.439793040801305L126.2739705700078,64.1228290797153L127.91247958957683,63.42502735360176L127.93507266108645,63.979836517362855L127.95349292020546,63.97985108301509L127.97646682843333,64.04921439805184L127.71391784021398,64.10449075631914L127.70018347608857,63.998142719850875L127.31795020867139,63.98397041705903L127.30885097262217,63.84526641856064L127.26739875477506,63.84985783902812L126.47126347967423,64.19859091838589L126.6884270189912,64.74190643732436L126.4527985988534,64.87068831955548L126.30285161855863,64.95655012445059L126.24130151700228,65.01273239325383L126.16612791933585,65.23302178794984L126.95796974503901,64.95919437138946L126.93498494027881,64.90831753108068L127.11465520074125,64.82523997547105L127.14226350566605,64.86225278375787L127.64899523177883,64.67309375485638L127.65831004380016,64.54365092789521L127.75040678156074,64.55759789035073L127.63471377000678,65.26948145890492L127.54261720034992,65.25554103887407L127.63050253328402,64.7655475094507L126.98555359890452,65.02393974547158L126.9993350590812,65.06556017522234L126.75867720972747,66.57717030119966L126.67117267852882,66.58171993205906L126.92105887643993,65.0516307966027L126.17926625488326,65.31938799095224L126.07866279181326,65.42344674860942L126.1801257499028,65.77260819610092L125.88359131029574,65.91418683977099L125.93513277015882,66.1866004957119L125.7974068489275,66.29064476597705L125.67177631659433,66.63641154108336L125.93429077329347,66.6227499509987L125.91144807101227,66.38232747311122L125.99435550789349,66.36852215591352L126.1364320681896,67.2516676094674L126.03510473109782,67.26545561186504L125.95723874960095,66.72448217199417L125.95266221911879,66.68286919553066L125.65790192881832,66.70575179555453L125.6043697835994,66.95450606368831L125.63239592546597,67.469849101617L125.8782824901864,67.65384498462663L126.15278481540736,67.82062739902176L126.29024397110334,69.62923811996006L126.24458787572803,70.23490344555466L126.20666484622052,70.73717427061638L126.52061670599505,70.70200974342879L126.61380972253392,71.18840654543601L127.39530360570643,76.61686528421706L127.05957192543428,76.69878750341013L127.56851844012272,77.83126724069007L127.73086879251059,77.81059234216809L127.90209619840607,77.91345349530457L128.25899014348397,78.22015342512168L128.42111423541792,78.49072968581459L128.81083951937035,79.20530349141336L129.19362790248124,79.95801218241104L129.2742948384257,80.62237783728051L129.53174996958114,80.47238669745275L129.764835427457,80.86308070772793L131.72859037591843,79.80728145755711L131.7705680608051,79.69917636713944L131.86018370254897,79.89149229502073L129.9024100418901,80.95330459420802L129.86654237954644,80.90521237949724L129.69290283496957,81.0132190627337L129.90955657151062,81.40981979412027L129.4232456672471,81.46358455339214L129.48581458145054,81.71962062839884L129.855400858738,81.69217675982509L130.02448506536894,81.8864800138399L130.31771398719866,82.32358947212924L130.47562130278675,82.59387489742949L130.55897360510426,82.56408439751249L130.54446891730186,82.52790639380692L133.22925297170877,81.62283005798236L133.2949636557605,81.77307547035161L130.6212576184771,82.71940600816743L130.60838904138654,82.68730372004211L130.53536495857406,82.72609354066662L130.64390372944763,82.93250471088686L130.5976333563449,83.17273376640514L130.6103439462604,83.39267855783692L130.6359354639426,83.62557109259069L130.73894041974563,83.7420916307019L130.93217823759187,83.832806285267L131.04810879740398,83.89758591470309L133.40381046402035,87.34049051004695L133.32074275799096,87.60195912851486L132.558859783574,87.77319702357636L131.23531853535678,88.06242251061485L129.07619495590916,88.44876214518445L126.48735640192172,88.88470182538731L126.41853877535323,89.76381973529351L126.47819361859001,90.01017716215574L126.62158544559497,90.30466464589699L126.68132369557861,90.43687991774641L126.78837943752296,91.29004204561352L126.895908198494,91.53043273705407L127.19490019947989,91.81302097690059L127.7638110537082,91.72769765608246L127.71002333477372,91.21266882622149L128.73341717530275,91.12336414173478L128.76920086325845,91.27358396042837L129.81177994183963,91.11398818809539L133.65301284269663,90.52654071061988L133.65891897573601,90.62266660272144L129.84013296180638,91.21265766970464L128.70927249104716,91.3876836427371L128.67350688006263,91.20742504729424L128.32639106130227,91.23718888865551L128.32033919059904,91.32128691393882L128.13480211456772,91.35117796770646L128.14681051671505,91.30312607582891L127.88347564905416,91.33295848613488L127.9028722703224,91.63738908222876L129.93572301487438,91.48955469854991L133.54495966079412,90.94698405798408L133.76838354044594,90.81130730343284L133.98815425182693,90.50278126762714L135.14106930198614,90.39415484960773L135.53832953207893,90.2156676898594L135.98120282200398,90.17397672214429L136.81753594585462,90.2362066420028L137.22692693717545,90.19869023191859L137.6418003446306,90.24708500521956L138.14439841220155,90.35964210217935L138.46343230002094,90.52010625920957L138.74255335133057,90.69655714379041L139.00568238802953,90.92105369979981L139.30870219436474,91.15359919186449L139.50798509374727,91.38605576750706L139.7748973928974,91.6661419183365L139.9543924589525,91.9070782038325L140.0737044736161,92.363752252626L140.20934293983737,92.37187639230979L140.28855290450156,93.08483548852382L140.23639372130856,93.57394066776033L140.19223853386939,93.77362263051327L140.136201643385,93.99786080344347L140.11207795719383,94.23013006182737L140.05288266082061,94.41029061787413L140.17868214583723,94.42496601317544L140.39157904405147,94.43971512265853L140.37209014722612,94.60485841042828L140.14952653989894,94.57552961530746L140.09144175425172,94.59977169177728L139.92638859327417,95.24570260220207L139.97467916528694,95.36718532594386L140.89396974875126,95.47966923445347L140.86958006268833,95.71281108181574L139.86319474468473,95.6002583731024L139.87304407171905,95.39138874204946L139.82958885160042,95.27476818321156L139.73603315232322,95.48739862444927L139.39281008945545,95.63930656042066L139.8956705822493,96.98012300644768L140.48925908264937,96.94606872304576L141.14324982633116,96.68753255298361L141.63418628124055,95.95389854436507L142.06428207276622,95.98016356426524L142.5970893043559,96.091751220898L142.89056077884743,96.14389109352487L143.05319834058173,96.27309585287003L143.12483914016047,96.14509411167819L143.20325152215082,96.19438394790632L143.34070096194046,96.0074423601327L142.51793563726824,94.79584346018964L142.2923565058154,94.82519345061155L142.25379591202363,94.01788164229947L142.58721582009457,94.02800546769868L142.60624835413182,94.73685154676787L143.32135543122422,95.6825506160967L143.57607921527233,95.98794823366916L143.46810125088086,96.11584368610056L143.40928657207405,96.08625753226806L143.2816838452709,96.22397990644095L143.33068709581858,96.26340388361132L143.1909916534205,96.45644326531328L143.24955003807554,96.66774402026203L143.4123811365571,96.82479405860067L143.47719833726296,96.97235007450217L143.85941308230394,97.26801262947265L144.16342102579074,97.26826634493773L144.28494502557442,97.31734578992473L144.86907939851517,97.78078571383958L145.3395089614205,98.12574362559826L145.75112629064824,98.44112474739086L146.05488705454627,98.73672258874285L146.17236191703705,98.98293685156386L146.17219771293458,99.1798316295608L146.55583211453632,99.44686760325567L147.35800574556924,100.1259259916551L147.67212253814796,99.76193537583458L147.5404877422843,99.66395419996115L146.4274535055738,98.83548332375358L146.57468675926793,98.67809224186931L146.6532214890467,98.5797107644612L148.52906885091215,99.88191207457567L150.66851775802206,101.36713055486325L151.08321364666335,101.65501838942873L150.9359268390108,101.88131637865445L150.4073082888499,101.53241907790652L147.79956332279835,99.81126712818514L147.50501070934115,100.23434313829057L147.7696356284432,100.42161772336112L147.98523240716895,100.59900411675335L148.181229031994,100.75668401291477L148.09284435742302,100.9042765054619L148.78472058888292,101.39870538853575L149.65586099791108,102.02124377159635L145.6673196228221,102.52808873952017L144.2480499187368,102.42897940953844L142.12234839785378,101.56782739853952L138.85496592189884,100.31225910337525L138.08063313364983,100.61539130884921L134.55411632102914,99.06152877878048L126.639254739217,95.93099707271904L126.2760879820562,95.78890845787828L126.51231038063997,97.30583674454829L126.57666596240597,97.68073558597825L126.62360960489605,98.04884603389655L126.82224481768208,99.3480761499086L127.14835965639213,99.47344778169645L131.3530675864895,101.28831836211612L131.75049217039486,104.51566218168591L127.63307353033451,105.19263908523135L127.26207243977115,105.56146025500493L123.57535677251872,105.9985641973326L123.63001210388029,106.47047036135336L124.3272017664276,112.3650163183338L124.1168405135395,112.27068329896429L124.05408555141184,112.24084586100071L123.9875689126784,112.22084067406831L123.91880916728405,112.21112445715698L123.84937609586632,112.21191903189174L124.0556184820598,113.54356690857094L122.1702991303755,113.27399494533893L122.19125010160496,113.0368676687649L123.69569788780063,113.23266806654283L123.80096992320614,113.13571845024126L123.67639924987452,112.20869971625507L122.36403045675252,112.70962711484754L122.25835815549362,112.72871865268098L122.15730905550299,112.7651555071061L122.06368725508219,112.81792655479512L121.98009074304719,112.88556739955675L121.90883930417476,112.9662010105967L121.75991670467192,113.07447119004792L121.5991131971241,113.16399170010118L121.42875922954408,113.23346518081962L121.23860088561196,113.26980578925577L121.04526884411462,113.27950486104237L120.85244886454893,113.26237749139545L120.66381694475422,113.21875019947765L120.48296924220631,113.14945470468956L120.43053323915228,113.12184192650602L120.37440281495219,113.10291439326829L120.3159947830718,113.09314986501704L120.25678344763583,113.09279481350677L120.19826338952407,113.10185820047627L120.14191174076404,113.12011125232675L119.89073915476911,113.15984653454507L119.63662635866785,113.16888347247732L119.38328257459216,113.14709015836706L119.13440580025781,113.09478469844908L118.8936288326513,113.01273057056824L118.27888399967924,112.74161869721138L117.9022897714749,112.6501773322816L117.48898640275002,112.49854978732765L117.49708489276236,113.01915092242416L116.55514327669516,113.00479247880867L114.47203189868014,112.93502699647797L114.48037475039018,112.30198009006563L113.79760358983185,112.21378762525273L113.75802471057978,112.05434264239739L113.38175295596011,111.97980178822763L113.00100135128014,111.90844252731767L112.98897908168146,112.13247713717283L112.99830474948976,112.71172229092917L109.96826940245228,112.28694687757525L109.99301420751726,111.61858216446126L109.99276561656734,111.47981118349708L109.30266482522711,111.41869275798672L108.25127116474323,111.30183510217466L108.25622775906231,111.41383945546113L108.11047870974289,111.41859835686046L108.13104654871859,111.97875918704085L108.30987359769642,111.97416366732796L108.32345433562296,112.71586711250711L107.68978041905211,112.70651391369756L107.67922084062593,111.98292320492328L107.96101355022984,111.96063557232264L107.93264877755428,111.28846920718206L107.9287594789057,111.2883236540074L106.47988456330495,111.09211062861141L106.3963041472598,111.08402991379262L106.31252020073589,111.08959488233086L106.2307288676966,111.108659665304L106.15307406155625,111.14072453399422L106.081591267779,111.18494900199585L106.01815418916522,111.24017385393381L105.9644256324973,111.30495153338416L105.92181392293423,111.3775840861781L105.89143598917872,111.45616766819148L105.88392317603575,111.80606612606789L105.80049428500934,111.8209403870278L105.81617009884212,112.49582599196583L105.73684136196971,112.49008734119707L105.74446155771147,112.77139736252138L105.74568281247048,112.81830053200247L105.9227721269126,112.82299038875499L105.93629836943,112.95518738724058L106.4144234880223,112.93742659676354L106.41174653079361,112.79304403535207L106.41110408003442,112.76136460498674L106.53947877674364,112.75892631677561L106.54020409507211,112.79721586056985L106.54604304867098,113.10676948077162L105.94307010422926,113.11823926077341L105.94251002778765,113.0887336184096L105.475769901881,113.09761302152765L104.57445717789233,113.05752989451867L104.58160891797161,112.8955055004044L105.47990310599562,112.93545303636347L105.48597339226399,112.79784164929879L105.69074118766002,112.80695087445201L105.68494625546737,112.76946558975033L105.67693640448852,112.71767821229878L105.65592125355033,112.71523714758223L105.61996812483994,111.83301692755776L104.68762290809536,111.91835750945029L104.6480284470017,111.59849172376562L104.53306620096555,111.49312968982849L104.31113504280802,111.48138552441378L102.85984613682376,111.54943071460002L102.84736064134631,112.4580065429036L102.80842198629398,112.45731407983112L102.80456046754261,112.67602595538483L102.80354569654446,112.73329845818807L103.04158548236592,112.73754542812821L103.03957786597311,112.85101654185564L103.15513478888897,112.85307642663247L103.20678528246935,112.85399400701863L103.48328827309888,112.85892786391196L103.82324636098929,112.86498828805634L103.87789922818774,112.86596002659644L104.1673042079201,112.87112520125811L104.22519295691745,112.8721567868779L104.29484663147014,112.87339706119383L104.29301557817962,112.97698561116704L102.503057370428,112.94507114696898L102.51556905108737,112.66665095282951L102.5295712435036,112.3548496196745L100.09422395989532,112.290865865245L100.09697161021177,112.18549784194329L102.52680401684484,112.24934700908489L102.53006303415168,112.1242603554856L102.63940524746431,112.1271328223811L102.62524565041531,112.67020930463332L102.62363516294863,112.73194830742432L102.72833475103835,112.7346988467616L102.7299263352179,112.67360378813464L102.73552092793398,112.45906174188713L102.69201666588197,112.4579193945101L102.68958155502332,111.53313467960106L102.5372814888251,111.52097116570803L102.4267743381206,110.99951147555839L102.22843181801727,110.9056301957753L101.50242760637775,110.89395291125402L101.40558952873107,110.94019099939032L101.38789653987624,111.20380144199589L99.25790617422899,111.20227771141799L99.02468518540263,110.92091161257122L98.05082789994776,110.94020653274492L98.15571407566313,112.17725152272033L97.54368375620106,112.17681782477302L97.46999700280139,111.27709088224219L97.16154798329808,110.93622558971401L96.22960687743034,110.9539974257932L96.54729591269279,111.83939899227698L95.74360587901901,111.91389279664145L95.75202974490821,111.94313070856151L95.77920449030353,112.03747343987925L95.76513280335348,112.04155986168189L95.83532632602146,112.23501148799551L95.93798912572674,112.25360742711928L95.91543868096778,112.45261978861527L95.2473827432841,112.43096108935424L95.26392392267007,112.29877612946439L95.48029802972451,112.32855466828914L95.74339280079585,112.3583596824028L95.76560929405969,112.24235269852215L95.70218790805666,112.0603275297326L95.66491849906743,112.05219766317168L95.62183110439219,111.91106553803547L93.1060343166464,111.89818245521747L93.0844989917241,110.98037867731182L90.88410076050786,110.99016146102804L90.86960383842234,111.88011382892728L90.75131238711765,111.85557854396757L90.74495385959744,110.99078176086186L89.00162254663883,110.99854418012546L87.72512618097244,111.0079741673544L87.73408489633584,111.2628807289002L87.73564613045892,111.30723065932398L87.74561001971597,111.59071093521197L87.74742298480123,111.64224090438802L87.75801625743043,111.94357057454181L87.75994512368925,111.99840838677483L87.76677305425983,112.18853624738404L87.7728794439463,112.34008908568649L87.87409328913782,112.33587456456735L87.8728228136315,112.30517221917398L88.16134375770343,112.30423667788273L88.16146476409631,112.3409071227652L89.6906254835194,112.30907830563956L89.69267163588665,112.40811200908502L89.62239571899408,112.40962132340064L89.25085727265105,112.41760366482777L89.20482534513576,112.41859875372029L89.02879406232387,112.42237623440451L88.97701934096403,112.42348879983183L88.62372644571587,112.43108028563438L88.56761370506138,112.4322900120751L88.16466896992642,112.44094969300204L88.10678503051167,112.44219441752648L87.79145721712848,112.44897221351857L87.73332223272882,112.45021682616789L87.38611738110194,112.45768022612901L87.30878620047588,112.45934640691848L87.30650165630504,112.34881399245933L87.69057489326224,112.34778739340254L87.68642566446215,112.18593442349811L87.68387498048833,112.0364297851338L87.68275201419601,111.97042935382342L87.67887451738352,111.74243030129583L87.67778875969816,111.67873048910405L87.51049775251886,111.68786553581594L87.47715702548157,111.00733469208353L87.20958543673623,111.01129726081854L87.22341269091703,111.15060483574052L86.30121350236004,111.15077237828518L86.37028626527172,112.14329364916193L86.38249130256008,112.33877128749737L87.04791514383396,112.3186595182342L87.04908536013681,112.40510532967164L86.81744397047441,112.41069181083003L86.66092336265137,112.41446328343591L86.59391100826906,112.41607823927188L86.30155941762496,112.42312769743148L86.0539245796972,112.42909947177395L85.93311424733838,112.43201147703803L85.84453083458357,112.43414660944836L85.841738689458,112.35043768957257L86.30940960068256,112.33472369905212L86.29737321933499,112.14093065739144L86.25204634305555,111.41107094462495L86.22658987884643,111.15132597449701L85.2908477113815,111.16835492206155L85.26737682538806,111.30170815662132L85.37478997302242,111.90916238221689L85.40048942976864,111.92117865110049L85.49220117530786,112.04268637881614L85.5040081422776,112.1152336471423L85.53678424429381,112.29911817153334L85.3397686847602,112.26923161925515L85.31709818920353,112.250689810724L85.10367679025512,112.32296103588305L85.08662604022538,112.2757405177399L85.30307352973614,112.19709845032776L85.28521358576836,112.10815168035333L85.13607560738456,111.36538178805495L85.07116189878434,111.17235134544899L84.91290950635448,111.15645616868278L84.84344530006638,110.9607930147613L84.64334150741342,110.96150895525352L84.09999196295394,110.94204007592634L83.89909112651367,109.89900032730657L83.66366548027145,109.95792021558736L83.5389384610462,109.46307194352266L79.4341024577734,109.97787033815985L81.66451013134792,112.21257584122941L81.12243261496769,112.23328411966213L78.8026098839473,110.00927700824104L77.35172151151346,110.101464337582L79.38442775269505,112.11897547362605L78.86115290783346,112.14403484298964L76.73021262534894,110.11510775520583L75.26170410803752,110.21824661112623L77.15744851104682,112.0791670428298L76.59120592050022,112.09976898293826L75.39870525454171,110.95919084461639L74.64485924912151,110.23627736599883L73.06504964933265,110.21274490604992L74.87853484228253,112.01817044214113L74.33576895750593,112.02289963752264L72.3661317290389,110.16881675951299L70.75213458703365,110.07659465051256L72.6158466420602,111.94783458375605L72.00253763032379,111.94156463199761L70.09202833392192,110.01477017020807L68.41466345416848,109.93969670217484L70.35552273009671,111.91048390849028L69.79931014816975,111.91496205911972L67.6789795809309,109.89725446936791L66.08189533435507,109.80974445311585L68.02855064207688,111.81383989221649L67.56923495675437,111.81708596515818L65.37215987144737,109.76667067484232L63.745657176710665,109.6780536651786L65.79096361470874,111.74680112546775L65.26710652722977,111.74976168203284L63.12423837109236,109.7086531809473L61.6324330419302,109.77881343322224L63.62094987707678,111.67877056339057L63.03739907924319,111.68857172742719L61.092634235625155,109.8033360215486L59.62097307422664,109.87441268432303L61.49558995629195,111.76587026272318L60.68962481041672,111.78296512473025L58.77942153130425,109.90199292832403L55.004122451122385,110.12100560520776L49.899876752344426,110.82428621244617L47.09359822317492,111.23451776977163L43.18094833783107,111.72121903143125L37.75318332831375,112.39645746833412L33.4740907594678,112.88856979346019L33.73055319208652,114.62440488894936L33.78459187806584,114.9901619963639L34.279976796358824,118.33875555399572L36.121582338178996,118.12640192019171L38.35588967334479,117.86877938223188L40.00452251837123,117.67869805180817L43.84702368284343,117.23569390919874L47.77563368371921,116.77879440027755L49.42079280503094,116.58747146243695L50.77327035937924,116.92991296178661L56.52885025192518,118.37421800885932L60.845417043718044,119.45747828573803L64.92252059612656,120.48069662525086L69.02528959349729,121.5104066162603L72.77485642640386,122.45150889310753L77.28877378616016,123.573353277141L78.63901246571913,123.90893707677606L81.05524603970116,123.85855604315293L84.93715112359496,123.77765260703745L88.64837414369686,123.70033705889364L94.3902815891197,123.58509299129946L98.3128170434502,123.50641461115447L102.30817347590346,123.42632506316295L106.23974895710126,123.34755269289599L112.19448996637948,123.22832270851359L116.13919502636418,123.14939297491219L116.13566809747135,122.70106786099495L116.04112991865259,122.70246842352208L116.04185509920353,122.75555181899108L114.0947018667357,122.78243426352856L110.58936476992676,122.86809067698778L110.57333704759367,122.2072566706338L110.69557500357041,122.20426868632785L110.70663422142388,122.66010207036743L110.75213381426875,122.71970633635647L115.71395680651767,122.61612438131124L116.03987937927013,122.61162845120998L116.0406284542405,122.66607480600942L116.13818101619836,122.66462186444551L116.13720296049723,122.59805259268614L116.34454833564814,122.59497355061467L116.34778254147386,122.81402753596194L116.76860977715114,122.80777719052276L116.76735855138395,122.7070733855071L117.87133607792202,122.6933260919468L117.8759991748957,122.97310226151603L116.7708152665291,122.9868606577511L116.76929401489906,122.8636104860343L116.34783738403348,122.86987610324286L116.36934646166628,123.1542827358935L119.5386313375202,123.08441078150645L119.5409075357602,122.32819410302909L119.67249834479298,122.31591668727924L119.70658501097932,123.08167401509127L119.93305369070731,123.07837172801374L119.91700531449169,122.31530962520628L120.0869437448564,122.30280426668469L120.10284878540551,123.06335539414431L120.3666296544252,123.06923898553941L120.48217440280132,122.78711402977933L120.6056963467272,122.57255683411495L120.82376314786961,122.39523105038097L121.06227979302639,122.35413344373228L121.31716845097253,122.42038001108449L121.43219291552668,122.55668766089366L121.55125127237989,122.80032041517552L121.63914445217233,123.07162016493385L121.86094686778961,124.04380185579066L123.66441755666165,131.94871058681747L123.77143421035726,132.06406737925136L124.53082167031243,135.17388110997854L124.48081227147486,136.71257196628721L125.05467147752643,139.48663969966583L125.26288134569768,139.5311695728451L127.70083260652609,150.06564096783404L127.68990206927992,150.63424981944263L126.0963941491209,153.18988390587037L125.8430643507163,153.41366112511605L119.14432280766778,153.8040081114159L118.10747823870042,153.93792565667536L111.9555465488811,154.1249889167957L111.7366917351028,154.14755137491738L111.60835292196134,154.21563328648335L111.56295289093396,154.38226552316337L111.59960727777798,155.84058780633495L111.17184750933666,155.81422825506888L111.14574311103206,154.65728875351488L110.82231225655414,154.24892152185203L109.791176628205,153.7648953087919L107.97191785904579,153.04474166908767L105.96740897156997,152.40733189682942L104.97346932039363,152.30768807788263L104.59308963268995,152.53605644666823L104.41689438925823,152.79483792351675L104.34332921542227,153.0696316578833L104.21782869828166,153.62267141163466L104.13145092711784,154.6968943134416L104.08443073858507,154.72387894091662L104.03356260352302,154.74254886203562L103.98029285651864,154.75237323599868L103.92613611655543,154.75307272715145L103.87263222230831,154.74462744698394L103.82130245026201,154.72727751923958L103.77360626053996,154.70151625364088L103.77355196024291,154.7013096153969L103.61977642250713,154.09226213517832L103.61078800348332,154.06678445311263L103.59777866938384,154.04312072269386L103.58109717408661,154.02190532212262L103.56119071465218,154.00370699446648L103.53859294374706,153.98901360173477L103.51390966249164,153.97821904506418L103.48780258087208,153.97161270564538L103.46097157843178,153.96937168645673L103.43413594143931,153.97155606505112L103.40801508066943,153.97810728257173L103.3833092447021,153.98884971340885L100.1659359424375,154.1256840476708L94.4887807785999,154.36720147830783L79.61159922252409,155.00052305764984L79.56913341331528,154.95308105408913L79.5347104294342,154.89947166890488L79.5092037456925,154.84105521909078L79.49326058937004,154.77931399963563L79.48728551779641,154.71581467217766L79.49143015156733,154.65216851138393L79.50490833137883,154.5921857134672L79.52737637725659,154.53498197486624L79.55830441170838,154.48190637811786L79.59696303785313,154.43421064849827L79.64244054123992,154.3930196352303L79.69366439105943,154.3593047815375L79.74942653486505,154.3338612144289L79.72192036366323,154.24867088193423L79.68102187744807,154.169083433575L79.62781292566797,154.09720414230833L79.56370100041386,154.03493438466103L79.49038200441282,153.9839213443629L79.40979539131513,153.94551443916862L79.32407286250964,153.92072962483508L79.23548197757918,153.910222520557L78.63908699870808,153.75496276037302L78.02213910361752,153.5687181467365L77.06269730156055,153.32368795425282L76.32216853223508,153.08307049868745L75.56457564700395,152.92465892600012L74.85502377699595,152.7923272078333L74.10282535781153,152.69942901053582L73.62384382111486,152.6365975381923L73.14177925011609,152.60558414561092L72.65872667706572,152.6065236236609L72.17678542854264,152.63941188892932L71.69805000082124,152.7041060020565L71.2246009548544,152.8003247892484L71.06863157259068,152.8814819782565L70.92561249306891,152.98389600470546L70.79839867091505,153.10552244930295L70.68952954688575,153.2439333727816L71.02752911520656,155.44325137377018L70.97077362809796,155.5785844642378L70.96667927544331,155.59314470223035L70.96491384669207,155.60816980875097L70.96552116790554,155.62328678977792L70.96848616219359,155.6381203706551L70.96849103545537,155.6532697660732L70.96632813743781,155.6682627516857L70.9620423305314,155.68278834674857L70.95572250999976,155.69654526634258L70.94749975996092,155.7092481678992L70.91053681855556,155.73436954792123L70.86987109924667,155.75284662094782L70.82667649147334,155.76414601437864L70.80215673253406,155.76540641271276L70.777777102252,155.7624919321679L70.75423787336331,155.75548628729302L70.73221517936327,155.74459070595913L70.71234159357846,155.73011814875645L70.65110796230147,155.61862371850293L70.50264417903963,154.59811432348215L70.42963207664434,154.39076782827033L70.22234160616063,154.22535545859137L69.48649697285146,154.08652718956L68.74454197566956,153.98566388484323L67.99841899651801,153.92302962840768L67.25008133298252,153.89878841195605L66.86837663699407,153.8918456583342L66.48739961552201,153.91649322994635L66.10974012844963,153.97256356762955L65.73796548123937,154.0596754947328L65.37460296979407,154.17723680785275L65.02212269877782,154.32444830486202L64.7970509470324,154.49119102352415L64.59700688981684,154.68747047518264L64.42580512969289,154.90954375834554L64.28671025729273,155.15317611731007L64.18237460119417,155.4137216990348L64.11478765425272,155.68621215122403L64.08523814147338,155.9654513662099L64.28061017976142,156.01719173247693L65.14457560464507,155.89383277867455L65.27822316880338,155.96618878273875L65.33074135886272,156.29618980403757L65.26805998984491,156.4279557488917L62.21390491636703,156.9588735071593L61.95786580815911,156.95505296078045L61.67409147066064,156.9704746408679L61.582490574452095,156.98091634511366L61.084904845105484,157.03763422608608L60.39100189105375,157.1720829133119L57.52565589605365,157.57900223269826L53.66834619274596,158.1268322938413L52.49952123267576,158.29284078415367L50.71698099101195,158.78238245798275L50.07632829557406,159.00188284213073L48.48872443311848,159.5458291611285L47.870715419296175,159.48776240603183L47.36765264667338,159.50190324391588L46.85014681320172,159.64589838095708L45.917299576161895,159.7174008556176L45.91585709730862,159.71751213693642L44.7371835365193,159.87556429728284L43.74535239889519,160.04815330641577L42.58102655480616,160.24950442294357L41.94493592821527,160.24915014591534L41.79051552177407,160.24906430655392L40.741279408102855,160.26290834488464L39.418897322320845,160.39204035291914L38.72879877797095,160.75238516190439L38.24047833652003,161.07729831829784L37.95562020025682,159.50444687259733L36.072900336876046,146.65772999144974L35.540630362636875,143.37082134879893L35.37901245179819,142.24776841385756L35.12728214322124,140.50811388503644L34.11121206782991,133.46814018773148L32.43487352464581,121.9162631384097L32.02582102594897,119.7612144247687L31.681425688322634,119.07408477104036L31.178649125853553,115.49798609985737L31.044142371683847,114.46924387331819L30.875989538792055,113.2662073278334L30.83583231305238,112.91740388830658L30.745286232908256,112.23626485848217L29.809239004040137,112.37488096422749L26.412445290363394,113.28858912232681L24.156064082460944,113.90407539260923L22.77050017862348,114.28199763011071L21.023886882991064,114.71008762004203L19.768427559523843,113.73602900266997L19.47585661255289,113.45209078566404L19.204356767993886,113.18844065480516L18.929287234379444,112.92139573063469L18.61265695875045,112.62788179755444L18.186016837949865,112.5704005639127L17.752595205325633,112.5895075268636L17.332626093295403,112.68428696130286L16.831177448795643,112.75256837820052L10.311454332666472,113.64100295965909L9.883244726166595,113.61598151433282L6.836122200300451,111.76944321551127L5.941619411518332,111.33070983423386L5.701742206001654,110.56479024532018L5.516312105348334,109.63816400981159L5.2278283795458265,104.4460477916582L5.187433356128167,103.92450613592518L5.171871448459569,103.55369245976908L5.157707625243347,103.16498957094154L5.137470577436034,102.912833733164L5.121843733126298,102.71811118599726L5.058396839420311,101.59962205248303L4.776410389342345,97.26662471162854L4.707041430927347,96.40577175104409L4.689221465669107,95.54070660407888L4.723298567230813,94.67610780172981L4.808877756411675,93.81671475819894L4.8111544768325984,93.38388336598291L4.6749999999883585,89.00573066051584L7.065994634584058,88.65622318649548L8.884482993395068,88.39039028651314L13.72304426424671,87.68907708115876L18.216469019127544,87.04399333702167L22.128774447075557,86.48609441172448L21.99028724769596,85.19133026120835L21.29812350717839,80.03207998210564L20.475256931968033,74.74731955348398L20.185730252647772,73.54405656797462L19.938080943422392,71.34767696302151L18.730425231624395,63.031112187949475L22.62039485294372,62.482523457030766L20.611770006245933,48.39754058999824L19.050103541638236,37.53124039087561L22.939310472051147,36.97081300409627L25.241721558675636,36.63891264234553L26.824508062563837,36.40653719889815L30.88186526868958,35.823764586937614L34.917957193451,35.23086367431097L38.89052770618582,34.66421796195209L43.921959110419266,33.9325273061404L48.258880853361916,33.297341982950456L52.15065566380508,32.73353298427537L54.23609402484726,32.43701134319417L56.043078765738755,32.1801296826161L59.94128386519151,31.612074782751733L63.98480601172196,31.02068257879L68.03488877596101,30.441849428229034L70.00283881468931,30.15913497642032L71.9242928106105,29.883127655572025L73.8701642693486,29.598026554944227L75.8207067293115,29.312291712732986L79.71385681553511,28.744988990190905L78.43389380240114,19.925911616242956L78.23242399760056,18.536557895044098L78.01351503003389,17.0265301677573L82.20953824411845,16.42480098368833L85.25262160901912,15.978926731506363L86.40126158442581,15.813956401747419L90.28930903377477,15.251823519240133L92.14400307531469,14.98268918908434L94.1773706934182,14.687634611938847L98.07641153974691,14.121551296382677L102.11909000016749,13.540068600850645L106.12526311486727,12.952525825094199L110.06119893444702,12.469688048993703L113.37206247792346,11.976415224024095L111.01499729772331,9.197692422196269L114.24961204698775,6.4485882009903435L117.23816038557561,3.9227016815857496L124.87137285037898,12.91380571119953L132.480995015183,21.901789337891387L140.00324597314466,31.081887502397876L137.23643910401734,33.59687725637923L135.8323812839226,34.79171589089674L133.96652524371166,36.37957416300196L137.74716546357377,40.80399696994573L142.23796718672384,46.11265618001926L146.71689504699316,51.40349570856779L151.1758974355762,56.68907222134294L155.6591434465954,62.02441191027174L157.12340715236496,63.74968553165672L158.88234560057754,65.83491893531755L160.20543965295656,67.40281537521514L164.46400334406644,72.40153853344964L170.1261266822694,79.10850390457199L175.3128026787308,85.23910047087702L181.75714246323332,92.87430493850843Z" /></svg>