<?xml version="1.0" standalone="no"?><!DOCTYPE svg PUBLIC "-//W3C//DTD SVG 1.1//EN" "http://www.w3.org/Graphics/SVG/1.1/DTD/svg11.dtd"><svg width="316" height="393" version="1.1" xmlns="http://www.w3.org/2000/svg" xmlns:xlink="http://www.w3.org/1999/xlink"><path stroke-width="1" stroke="white" fill="steelblue" d="M273.7134372408036,50.12516104726819L275.7235986541491,64.22292728954926L276.440290277591,69.13041309121763L277.74252771318424,78.45066798583139L279.9027288220823,93.79709288768936L281.4990832472686,104.26702164625749L290.5267194318585,102.98416353442008L292.32375688140746,102.72882384422701L296.54775035881903,132.19906500482466L298.5575259338366,146.22328228293918L300.8540284145856,166.2650255835615L299.03612764854915,177.90868735016556L297.9804841215955,187.96331139834365L296.8034387177322,199.2778376864153L293.19223595934454,233.36533832130954L303.6381261885399,231.89029853849206L305.2018507934408,242.49527644837508L306.5663312601391,252.2308430270059L308.0999999998603,262.8535442329594L289.7602723543532,265.5045025770087L280.9464055746794,266.82298302138224L272.14319911494385,268.0525048636482L270.96900574315805,268.23830574855674L265.2385027317796,269.07472338940715L255.61974741599988,270.4925228646607L245.2048237938434,272.00052100227913L234.81547067768406,273.535254004295L230.59663360647392,274.11452484392794L225.16513906233013,274.8737433741335L215.43324441753794,276.3312031196547L217.67664219846483,291.80709783616476L219.64579590770882,305.45375762542244L211.75473998545203,306.5068925655214L207.59005176241044,307.20069020957453L200.4663390138885,308.2478049551137L190.56817349267658,309.7265109983855L187.49945184052922,310.17765689926455L183.23620453383774,310.7623772324878L182.1399930997286,310.9172508175834L180.87190649705008,311.09642137167975L176.6664707249729,311.73059171118075L176.0558022520272,311.82269125815947L170.72229434887413,312.627034111938L170.32251294981688,311.1628631859203L156.3151935985079,300.3348908961052L135.7526744310744,326.37011087150313L118.7013882790925,347.970110665774L110.94552928919438,341.7830191003741L107.8247073533712,345.4238016450545L99.36346347723156,355.2950280861696L98.67508846207056,356.0981127296691L97.89424268528819,356.5719260085025L88.04364041332155,362.5503512711148L84.87760682916269,364.4613789845607L84.30080688360613,364.8095412142575L83.64875892619602,365.18555784539785L80.20088976051193,367.19500806584256L75.51166389428545,356.91021538397763L31.017365706153214,383.124966447358L24.185485088499263,372.5350349174696L18.296455636038445,376.1132216914557L15.920209698961116,372.01637132820906L27.261568385874853,364.6298706093221L26.82020062301308,364.03021060302854L22.48085109249223,366.623105543782L22.170913155539893,366.05264945561066L26.5773818383459,363.3929400322959L25.88062978745438,362.0215303528821L25.433232468902133,361.2301733128843L25.10209319414571,360.8217513792915L24.6875669042347,360.31046999886166L24.091032563475892,359.69021372153657L23.451880322187208,358.85606698470656L23.068391782813706,358.27859241422266L22.919270371901803,357.615562961495L23.088312022853643,357.1507052379311L23.55844446993433,356.86699081020197L24.02715749864001,356.9953162452439L24.389331760816276,357.4658581325202L25.00717219314538,358.3427853518515L25.64633071795106,358.5994485896663L26.09374455746729,358.49252278142376L26.583766408031806,358.17170565761626L27.073795576114208,357.59423806576524L27.499917294830084,356.8670565668144L33.721274862997234,348.3760878878529L40.48818240012042,343.9000443982077L40.55148600274697,343.1258391988231L40.53393923153635,342.3492292780429L40.43573360913433,341.5787003597361L40.25794199272059,340.82267176540336L40.00250685948413,340.0894044167362L39.67221908993088,339.38691056874814L39.27068748010788,338.7228662549169L30.54003207909409,344.8421614248073L29.86848086095415,343.7530901285936L37.42342068790458,338.8519459865056L38.702466257615015,337.8930853474885L35.92681647464633,335.1048532712739L25.322480211150832,340.95254466473125L19.01993969513569,345.67174933163915L18.010884807095863,345.9654260122916L16.981514509767294,346.1764033565996L15.93854250817094,346.30330539803253L14.88877120835241,346.3453044992639L13.839047356159426,346.30212674837094L12.796217388589866,346.1740537445876L11.767082785139792,345.96192076191073L11.093630999908783,345.6958306218148L10.460227817879058,345.3443343566032L9.877565185073763,344.9133651566808L9.355478580691852,344.4101977191749L8.902780997334048,343.8433254606207L8.527114173979498,343.222317164822L8.234819597448222,342.55765546747716L8.03083144989796,341.860559922643L7.918593307607807,341.1427976236446L7.899999999906868,340.4164845759515L9.721223586355336,337.89262992562726L13.750717789283954,334.4698263932369L17.573597852839157,331.51377247000346L20.443240878987126,329.6700539471349L17.63451149687171,326.2828625961556L17.138953557237983,325.41396423394326L16.711441895458847,324.5093721304438L16.354510021512397,323.57444652868435L16.07027323031798,322.61472745018546L15.860416064388119,321.63590186694637L15.726182324578986,320.6437700074748L18.71023972169496,317.7705060375156L21.03500693908427,316.00722066673916L27.15754409728106,312.91285032918677L37.81145492196083,306.8220474103582L48.551282374421135,311.6603092579753L48.82487713836599,311.0632470214623L49.03491798858158,310.36812844418455L50.22321795753669,306.74348187155556L58.80432075331919,300.9223746167263L59.31934458739124,300.58877728530206L57.331312866183,298.2947336194338L52.797997682122514,293.24841190542793L50.88386363128666,291.1234844229766L48.01088239951059,287.9616882482078L44.844359138282016,284.47695903026033L44.29554822924547,283.87297014170326L48.96223548834678,278.12565917585744L60.18299928412307,263.9297381718643L79.64005565515254,239.23928511003032L98.0581521895947,215.97410788713023L104.60236396896653,207.664638038259L110.67680934211239,199.97883251594612L116.75841047556605,192.2838158478262L122.8579961382784,184.54393118974986L128.42729908938054,176.84707974054618L134.9740460171597,169.22561427234905L141.06332953542005,161.51999358506873L147.66644398658536,153.8519385480904L128.8951903686393,139.1432334993151L123.81369258754421,135.1616594324587L129.88185827468988,127.64987837825902L131.21963287272956,126.04246947681531L135.9976596912602,119.90273407771019L142.12872609577607,112.16475528973388L142.53363037889358,111.61225902603474L149.06909171515144,103.38739425060339L155.16880531213246,95.63524639734533L159.0248786661541,90.7630428346456L161.23170675092842,87.96863041969482L163.2434480994707,85.42713383218506L167.33717830467504,80.25556594476802L173.40806001320016,72.58817673416343L175.7098914833041,69.67375191010069L179.39673142286483,64.96162439876935L184.17412006342784,59.01348781015258L185.52276125142816,57.22656734922202L191.40160892822314,49.38241985626519L196.66204568219837,43.0941998847411L197.6482007210143,41.87266441009706L200.91269285581075,37.52308941661613L204.1594806702342,33.62937142216833L210.76346091763116,25.246083565521985L216.86987598100677,17.572822951769922L222.9477610414615,9.875033552350942L246.23418342263903,28.396377109980676L269.20543538429774,46.7305560457753Z" /></svg>