<?xml version="1.0" standalone="no"?><!DOCTYPE svg PUBLIC "-//W3C//DTD SVG 1.1//EN" "http://www.w3.org/Graphics/SVG/1.1/DTD/svg11.dtd"><svg width="316" height="600" version="1.1" xmlns="http://www.w3.org/2000/svg" xmlns:xlink="http://www.w3.org/1999/xlink"><path stroke-width="1" stroke="white" fill="steelblue" d="M89.14679118560161,580.4288066081499L86.93600638743374,582.18155920555L86.40021909380448,581.5793235722522L93.86367274489021,575.6234898057883L94.0624795263866,575.487858946799L94.27727669285377,575.3158482588042L94.81350782205118,574.8872130696982L95.23251007907675,575.5418632580695L94.65786688539083,576.004027566858L94.46460959155229,576.1578564728843L94.2713521202968,576.3116854520049ZM102.19036798740854,571.3863841853599L100.81190072998288,573.7723112628883L95.96168570852024,572.0278275756718L96.87052791944006,569.6434572276485ZM104.79558001179248,567.5432512295811L103.09527337257168,569.6175223435712L98.27014560464886,567.8416212480224L99.1943019562168,565.3946195123863ZM106.65532003637054,563.1969444419956L105.70080466617947,565.5583972322784L100.52758293013903,563.7491226745915L101.44543907785555,561.2660223729908ZM16.606923481827835,563.890593233431L17.425148081732914,565.3432541035727L19.121723451302387,564.289778819104L19.01385943297646,564.0842526982888L19.190093813056592,563.9848719385336L19.521568806812866,564.5436357884464L19.333174853149103,564.644048234637L19.213157592108473,564.4434659080289L17.509771202341653,565.4895008465683L17.402226090751356,566.7843211985455L17.1283207841916,568.0167577893881L16.393439408071572,568.5514323208045L15.48940668560681,568.7437238914281L14.61147925700061,568.5129529960832L11.328066486748867,566.3883122078987L10.166830460017081,564.5712277137354L8.683707758726086,565.5638881725608L8.12646551328362,564.6813796657516L8.443287954345578,564.4862990174006L8.783339016779792,565.0049106239312L9.970437462005066,564.263916226846L9.291828065819573,563.2020569403103L9.489500870142365,563.0696634548804L9.477802983339643,562.5313712212519L9.329431268299231,562.2655569260241L9.303648684581276,562.2193653474969L9.263314601877937,562.1403214117745L9.235930052789627,562.0558721137932L9.222183226549532,561.9681396535598L9.222419599216664,561.8793287425942L9.236633249704028,561.7916711994767L9.264467007102212,561.7073698649037L9.305221424176125,561.6285432430159L9.357872353255516,561.557172263012L9.422563990054186,561.5014604077878L9.494709322287235,561.4558977660636L9.572741585056065,561.4214738226874L9.654966164758662,561.3989361636195L9.739597401581705,561.3887742406805L11.556411617726553,561.2475021259743L11.610565551149193,561.1758891030622L11.724081486900104,561.1833874466538L11.836550931708189,561.2005499451334L11.947158959927037,561.2272522407584L12.097429781686515,561.292153129165L12.241970047471114,561.3690599195397L15.002975563547807,562.7703936543548ZM110.28797184763243,560.1873624728032L111.66739772449364,562.6589741845382L102.65177277542534,559.3205912444537L103.49880428554025,557.0930192649976L108.87068562066997,559.0836949785007ZM76.33554846170591,554.7278261519241L79.29438697447767,555.5317555497168L79.4021041629021,555.0719483089924L79.28211270546308,555.0318208259705L79.32607573913992,554.8591664494015L79.79803803213872,554.9795346438186L79.76607113689533,555.148169715525L79.62208619239391,555.1241040087189L79.50228436017642,555.5882438672561L79.61159102956299,555.6179440443957L79.90469597667106,555.209643987313L79.81882198987296,555.1519878315012L79.89939614129253,555.0169465014187L80.07746834799764,555.1448512796196L80.30807869927958,555.3153639022639L80.21774959622417,555.4155513791193L80.09543292131275,555.3232695300394L79.8392082779028,555.6797892956383L81.89743255570647,556.2390524397197L83.53348936172551,558.2263794614264L83.54727282607928,558.2455926608818L83.5639929563622,558.2622921388538L83.58320208441,558.2760307814169L83.60438590170816,558.2864407488523L83.62697722934536,558.2932433235983L83.6503712037229,558.2962563730398L83.6739414712938,558.295399225477L83.69705695842276,558.2906948303134L85.6811420651502,557.7469670057908L85.63642490343773,557.6440304563439L85.88742403461947,557.1954376990034L85.90481626277324,557.1610866359988L85.92545170566882,557.1285949973535L85.96731336507946,557.0785840690514L86.0167948686576,557.0361615468282L86.0725499544933,557.0024816454097L86.13306166999973,556.9784607147158L86.52749166687136,556.8678003547247L86.52944774352363,556.8672518727981L86.55955591570819,556.8588012656692L86.69142988574458,556.8810091301566L87.1196156918304,557.1238050973916L87.12029225792503,557.1247472256218L87.201830805192,557.2366467880638L87.23054840802797,557.3375187428028L87.2637200471654,557.453163957296L87.33587572225952,557.7047701896226L87.33728352680919,557.7097111685871L87.33725786974537,557.7098930973152L87.32152108865557,557.8626486688881L87.15205164073268,558.1666064676101L87.14353719892097,558.1818771488324L87.14205434263567,558.184545905242L87.08552073067403,558.2859246056469L87.00095820688875,558.3654235981521L86.98314433050109,558.3704727358563L86.85601727111498,558.4063886309887L86.48752978703124,558.510425964676L86.4852897945384,558.5110814963846L86.47294341062661,558.5145611830812L86.45989542509778,558.5182496462803L86.34479461546289,558.4980531118199L86.07363705112948,558.3636683911755L85.9961164733686,558.315518928197L85.92898663310916,558.2710512555495L85.88809068541741,558.2386603511404L85.84255247324472,558.1805934161821L85.77181380847469,558.0110660193022L85.59915998461656,558.056508761656L85.55696621441166,558.0676005775604L84.96415011273348,558.2235764871002L84.09426655768766,558.4565738376114L84.05337493188563,558.4675334548665L84.04040497067035,558.4710133933258L83.95825946846162,558.490898951597L83.91867026410182,558.5046062362235L83.90085661760531,558.5137596595887L83.88585695874644,558.5241929363401L83.8734581048484,558.5360393796873L83.86819879824179,558.5425529828644L83.86353651891113,558.5494570972369L83.85812221435481,558.55954889649L83.85372123119305,558.5704538499995L83.84841207257705,558.593308071082L83.8476593386149,558.6046030677244L83.8481804273033,558.6154800265504L83.85000438359566,558.6257541002997L83.85307982566883,558.6352997981448L83.86952031418332,558.6714044157416L83.8898954721517,558.7082944965223L83.98102000000654,558.8161641528859L83.99998648196924,558.8398756277602L84.00316428614315,558.8438760182617L84.02402232351596,558.8699668119662L84.17531755595701,558.7505952551L84.77915852863225,559.5264237194351L84.74455777960247,559.56889242951L84.89455678773811,559.7811836826149L84.81306972922175,559.8569516895077L84.81681403677794,559.8616324986651L84.86081279159407,559.9166641073971L84.88222453970229,559.943461059127L84.9912478995684,560.0798542883276L85.12682805903023,560.1485497702088L85.3550221096084,560.3721479525848L85.41138367273379,560.3452088902559L85.44781597703695,560.4748031601484L85.50114151844173,560.4557991317852L85.50113623589277,560.4188858419948L85.58765305863926,560.3949870225042L85.56601034133928,560.3037923240772L85.61575730625191,560.286413484675L85.64388985064579,560.3797776921565L86.71237918490078,560.0712889065471L86.74916642147582,560.2015689288382L85.47211481854902,560.5612391812174L85.6255627492792,561.1070989825821L86.38352117026807,561.1364868718665L86.3763219549146,561.3054486689653L87.17123546326184,561.3437987528887L87.16523393569514,561.4990173043625L86.3583128133323,561.4482350372855L86.35714887746144,561.4722586035787L86.3249079893576,562.1368095618382L86.60237174751819,562.1689646543527L86.60637798300013,562.2291848455206L86.67037588727544,562.2893996406056L86.79035096985172,562.2572628574417L86.81434111422277,562.1930239117646L86.85033590576495,562.1970324218273L86.81837007927243,562.4098240588792L86.80238911867491,562.5463310866471L86.83040198739036,562.6748016862693L86.67842587493942,562.6627788814367L86.66245179440011,562.8273895447346L86.57047026432701,562.847475792485L86.55048141532461,562.8996722270967L86.5064865637687,562.8996783367038L86.4745222699421,563.1164826972963L86.27837267785799,563.0960333628609L86.11199681740254,566.5254788228485L85.23945828687283,567.9471326348284L85.12651177553926,568.1503255319549L84.21340761560714,569.7930402310885L84.00293117703404,569.8869382605044L83.85909683295176,569.9719037496834L83.66450094428728,570.0908512042806L83.54594734418788,570.20739345318L80.44495138453203,572.4066734149819L77.87720775348134,572.1644281229237L77.76583734684391,572.2324077613157L76.8381334853184,572.7986843085237L75.82058511537616,573.4146807055367L75.67000356910285,573.5058375492081L76.40541350757121,574.7554191859235L76.55773081607185,574.8403329778084L79.84912600912503,574.5254506362107L79.85640184840304,574.634717186651L79.85896767710801,574.6732611228363L79.86609243362909,574.7802707737283L76.61701573678874,575.1206262091437L76.49856491800165,575.1631201864511L75.17895228840644,576.9471236912796L74.61224271685933,577.8985621305474L74.40914659839473,577.7627003867965L74.98431534212432,576.7857744451758L76.26162291222136,575.0357528983295L76.27851980246487,574.8913497429749L75.51341732143192,573.6006328830554L68.8303955400188,577.6465583340178L67.97815498878481,578.162530461952L68.71965545817511,579.4348469480465L68.81669542513555,579.437215043974L70.36487126120483,578.5025324223388L70.49949700609432,578.6986601317913L67.077984646603,580.7395729472046L66.95419299814967,580.5389369288314L68.5388345872052,579.5782236911036L68.56261471653124,579.5065515137103L67.82624815116287,578.2544984537963L66.83644374046708,578.8333136333822L65.12619641105994,579.8334418026498L64.24184089986375,580.3506073626922L64.03326436539646,580.4725845473586L63.89721465916955,580.552146010159L63.46511316325632,580.8113867565844L64.48024220310617,582.5301701956196L62.447655430063605,584.9999999999854L62.141899982321775,584.7574313585501L63.961258735653246,582.4946205272863L63.100986173551064,581.0298489233683L62.53286251460668,581.3707010293292L62.27296198197291,581.4952153577906L62.00506202687393,581.6076919602929L61.694673296879046,581.7367246681824L61.65719120018184,581.7523054138146L61.3780106168706,581.8470074494107L60.84727968182415,581.9459138518141L60.48472528392449,582.0031070984987L59.89466327364789,582.0175434608973L59.41833773071994,581.9891291966196L58.94200198361068,581.9178955372336L58.515417712391354,581.8180983923812L58.18253158486914,581.704376247726L57.6906822596502,581.5828227229213L57.136111306317616,581.4116996384982L56.688158770499285,581.16918163214L56.218827356322436,580.7625225483207L55.86324437530129,580.3629648938077L55.68877003900707,580.1325618511182L55.45408089191187,579.8226416628459L55.230270681902766,579.528142941359L54.9955312324455,579.0928653045994L54.82477139466209,578.6361551777954L54.69668356521288,578.2508030379395L54.6254713346425,577.8582947425602L54.582683345419355,577.4229539868538L54.59678974488634,577.0518286013103L54.62513228156604,576.7377942862804L54.71032001974527,576.3238212219876L54.87370711436961,575.8884172266407L55.028320956625976,575.5400554506632L55.13742244025343,575.3775317328982L55.27724929942633,575.1923052863713L55.48078382629319,574.9325984403986L55.580675216478994,574.8033865914767L55.82071444983012,574.5087152457418L56.44151062332094,573.7418249913753L56.89096470922232,573.1531690804259L57.31526426682831,572.6612008019001L57.75348611685331,572.1115251853771L57.82762334711151,572.0207453266194L58.20131932612276,571.5631566210941L58.25539394214866,571.49607772936L58.71976982970955,570.8607426986127L59.12735253217397,570.3450133560691L59.36303002713248,570.0665755219234L59.621987374237506,569.7609898999799L59.65752575744409,569.7190444205771L59.9392633420066,569.3865771587007L60.1046849952545,569.1732400203327L60.43063449420151,568.7528769312194L60.43652142773499,568.745548128456L60.783944294264074,568.3130352384178L61.085728155390825,567.9419951737946L61.3893688947137,567.5835328527901L61.71102560104919,567.1959890524886L62.27549290191382,566.4811391362018L63.264630610879976,565.2558268443681L63.527234243258135,564.9414159311273L63.80383804044686,564.6102413882618L64.21905118325958,564.0806468847295L64.99338320369134,563.1478854607267L65.88066795407212,562.0341596486978L65.92478092075908,561.9773309777229L66.50476161050028,561.2301268717856L67.01763547433075,560.5901125937089L67.59062623127829,559.845077595659L67.59834383634734,559.8356493153406L68.15381425188389,559.1569149421557L68.72316203071387,558.5299380245706L69.4915849037352,555.9971029678709L69.62185952838627,555.6041561519669L69.62806968064979,555.5914315100235L69.68663900796673,555.4909320971346L69.76272488365066,555.3935145315336L69.85158815598697,555.3076878896245L69.9514956693456,555.2351261329022L70.06049885659013,555.1772445088718L70.17647174390731,555.1351719449012L70.21806206542533,555.1243967950868L70.41753519780468,555.0826229248487L70.6200460808177,555.0599411638395L70.82378556809272,555.0565541480464L71.02693353628274,555.0724921366927L71.34938900003908,555.086537356372L71.67208983769524,555.092679316338L71.70524301251862,555.0928633213916L71.82333812006982,555.092837845441L73.15635153831681,554.9849931968201L73.66541477240389,554.9438114521763L74.98945486260345,554.8367051090027ZM109.81220038523315,556.3463194280775L109.36772189621115,557.4474054512248L104.38262957279221,555.1203047575691L104.96018998857471,553.9356100418954L105.60334280526149,552.6712769172736L110.41010078732506,554.8651842008985ZM25.252934732998256,532.8120767550572L26.348827826732304,533.8501554919203L26.502602732012747,533.7208302537329L30.182594509940827,537.3032682593184L29.331437626475235,538.1876066466793L29.041531708004186,540.135852591382L27.34435502209817,540.1320799146488L26.595960489707068,540.8707498860604L25.291874316870235,539.625263785143L24.581142198614543,538.8690933334146L22.40804879675852,536.7436831025989L21.296101292333333,537.8729448286031L25.336416287580505,542.0714102474158L21.48801082605496,545.6984568625194L17.055831926933024,541.146934366785L17.136960089410422,541.0661266657407L17.093702583777485,541.0200749469805L19.190810424042866,538.8813570441562L18.615995667292736,538.3041770308046L22.72508604163886,533.9669419733254L23.380725594353862,534.6185678959446L24.45574483348173,533.5812818604609L24.282845315523446,533.402319750181L24.237169162079226,533.4281405341462L23.96288396877935,533.1272609306907L24.085626743966714,533.0154006282828L24.37418948847335,533.31914184778L24.33993816707516,533.353559000956L24.509510823554592,533.5294033594982ZM78.735244117619,521.362977000841L79.3076079452876,521.4586343045667L79.58365900619538,521.3718355619494L79.8250110191002,521.4442706162663L80.26822778757196,521.5758220147836L80.41315978643252,521.7566867380374L80.66595585879986,521.8246594679367L80.91582471854053,521.9027815965528L81.24600626894971,522.023412007853L81.5692201864149,522.1617575301789L81.74772901655524,522.1877857309446L81.78861374728149,522.2715578369971L81.8151316435833,522.3609649735736L81.82655214838451,522.4535447118833L81.82256030931603,522.5467454704922L81.52198144630529,524.9475333586306L81.43818386795465,526.2489517765207L81.47567853869987,526.4645786788751L81.53176250099204,526.6761012400239L81.60600833382341,526.8819076696964L81.69784978794632,527.0804295166308L81.80658724915702,527.2701544263691L81.93139211036032,527.4496367588727L82.74904285612865,528.412312862085L82.78200048566214,528.9031222143094L82.80387629524921,529.1610479046067L82.80646157430601,529.1872782909486L82.80483837198699,529.213586337064L82.79904840452946,529.2392959543067L82.7892404696322,529.2637464333093L82.77566662189201,529.2863094238855L82.758675695688,529.3064050827961L82.73870434006676,529.3235169742547L82.71626579744043,529.337205342672L82.6919367138762,529.3471184129303L82.66634231974604,529.3530014308199L82.64014036231674,529.354703209814L82.58887644350762,529.3708803193149L82.54059023864102,529.3945537413238L82.49636243624263,529.4251936404326L82.45718289271463,529.4621142645046L82.42392847844167,529.5044892935548L82.40416786764399,529.5376767290727L82.38676418599789,529.565569480168L82.37338176745106,529.5956155308377L82.364279213798,529.6272342657612L82.35963242201251,529.659814679675L82.43044081373955,530.9522506916837L82.79385532895685,531.6050787754648L82.93997876936919,531.9126403192058L82.99400449512177,532.108179576142L82.13219383155229,531.97751404687L81.63769391112146,532.1091707098822L82.49120376186329,532.5206568449503L82.18197842640802,533.7965543715545L82.15353606533608,533.9150048588053L82.18315485550556,533.9222419717407L82.10221995244501,534.2563531233172L82.08229142028722,534.2514943727438L82.05732016841648,534.467499735285L81.99993321512011,534.6408080932306L81.89875106079853,535.0746557656094L81.70241279844777,535.046183575716L81.70240674720844,535.008997423618L81.99287384047057,533.8260128336551L82.02132179081673,533.8330448159686L82.04899495493737,533.7203315731167L81.7477776237065,533.527860494898L81.72056004946353,533.5625148230611L81.7316853129596,533.5712985486316L81.69032722213888,533.624001099015L81.6844665785029,533.6197632620315L81.57467191538308,533.8125120370678L81.39789563603699,534.0992777270585L81.15161027346039,534.4988185719703L81.11829268111615,534.4781147785397L81.09821200699662,534.5026454557519L81.10241768139531,534.5740632844536L80.99102008232148,534.8250959429715L80.90679565997561,534.78742815851L80.91566309289192,534.7032743757882L80.94496790430276,534.6938053029444L81.0445474263106,534.499046629513L81.04537422972498,534.4585399448115L81.16879675266682,534.2862675278157L81.29817789315712,534.1056755543977L81.30028383582248,534.078088782655L81.31690053537022,534.0592578808282L81.33086276130052,534.0565613809449L81.48300283169374,533.7973860986676L81.51068545665476,533.7621031556337L81.5152932300116,533.7417821544514L81.67152367986273,533.4780304748128L80.96836813117261,533.0250122865109L80.79000601929147,533.324150479355L80.686144807667,533.471214085861L80.59601101992303,533.6245471526927L80.49275434439187,533.7854429305444L80.33631207997678,534.0066506421281L80.18549502632231,534.2190707713453L80.03281163054635,534.4742199443281L79.9664563939441,534.4277337474341L80.10411011966062,534.1763524820271L80.13292147245375,534.1801129514497L80.1641956687672,534.1273370305571L80.19801044103224,534.1298419924133L80.25431560061406,534.0468833273189L80.23805738557712,534.0330522800941L80.29561454651412,533.9626725548296L80.30938924074871,533.9287277546828L80.35195028909948,533.9023346827744L80.36444723026943,533.8721808299015L80.35069155227393,533.8583478735236L80.3218844246876,533.8797189863108L80.3106298201601,533.8772101349896L80.43392174559995,533.7138015950914L80.57910803798586,533.4800177879079L80.78434914260288,533.150720353442L80.83755546744214,533.0778318775701L80.90138780916459,532.9747600712726L80.59962057456141,532.7737405150547L80.56083634254173,532.8001335293084L80.13638670256478,532.5162382996787L79.86959754556301,532.9507055961876L78.69073846883839,531.7509912566748L78.43593957240228,531.4870633488172L78.17874105955707,531.1558848973509L77.72577253077179,530.6626322394441L77.6755421255366,530.6184479791409L77.44309137028176,530.3085770357138L77.11822138243588,529.887555432113L76.84721093787812,529.5402423626656L76.80882787922747,529.484366172459L76.17916009039618,528.6072486733174L76.00749422365334,528.365330214714L75.77105150860734,527.980092011494L75.47804280585842,527.5247248105443L75.46038242653594,527.5421208860498L75.22538563387934,527.163992723159L75.23882714097272,527.1555695960124L75.22216548927827,527.1330213237088L75.13371048186673,527.0133263362368L75.0788575161132,526.92204303779L74.90269764518598,526.6308561226324L74.8110197042115,526.4613353038148L74.69262788860942,526.2367687372462L74.59009795388556,526.0006174187438L74.51281716252561,525.7934334757447L74.46659735037247,525.6369511738449L74.4218339950603,525.4573002934776L74.4015644393221,525.458716730107L74.35322679989622,525.2500902476895L74.32576076418627,525.0892645462882L74.307350545394,524.9692275849084L74.30435507258517,524.9454124120239L74.30183093147934,524.9253340473078L74.27588441525586,524.6212650507368L74.29891250937362,524.6193503324612L74.28955479434808,524.4488422236464L74.29529826852377,524.2633754478593L74.31401832043775,524.0749979675893L74.33132172757178,523.9779195973097L74.3640359233832,523.814386348764L74.34042708211928,523.7870649918768L74.33859776644385,523.7542435427895L74.36219187107054,523.7177583456651L74.38399625447346,523.7104824699927L74.40033028306789,523.714113930866L74.52410947080352,523.2483529721358L75.490855347045,522.961849563595L76.11881290591555,521.9385804571357L76.31021715025418,521.626684732968L76.46855577311362,521.6218655593839L76.47079144223244,521.4609875825408L76.59962299658218,521.4607192426629L76.83564861048944,521.4598867334716L77.15533117449377,521.3473008042638L77.32333969778847,521.324270971134L77.50280258111889,521.3050700271706L78.25883488322143,521.220600667817L78.73908548086183,521.2190869325568ZM173.63166819166509,346.8482509857422L172.61597805653582,348.6470980472077L171.24885970793548,347.80113693843305L170.02381286991294,347.1133572312683L165.52909936048673,344.58997626503697L160.84583481567097,341.97651805409987L159.27070628889487,341.09756268080673L153.90730752141098,338.14975910914654L153.96787363669137,338.04731173325854L154.01631224772427,337.93855661428825L154.05198166848277,337.8249344194046L154.07440936326748,337.7079502948909L154.08329937409144,337.58915466490726L154.07853287339094,337.47012035046646L154.0601729779737,337.35242420015857L154.02846287729335,337.237625341455L153.97494677366922,337.12579638486204L153.9089841863315,337.0208815452934L153.83144900703337,336.9242708083184L153.74336760138976,336.8372453102056L153.64590809188667,336.7609567167092L153.54036161571275,336.6964157152979L154.98576913014404,334.13045859886915L155.99671495798975,332.29182885127375L156.9915832207771,330.48064379033167L158.003162571782,328.6580614291306L159.01629910778138,326.83842825202737L160.05032475912594,324.9847814771638L161.0196016744885,323.2027855919587L162.02309198235162,321.38782446907135L163.02600183678442,319.5713880375697L164.03688860032707,317.74533780686033L165.03619934720336,315.93294324532326L166.14270759333158,313.93503677181434L167.23435135759064,311.96109262785467L168.24312098766677,310.13223501335597L168.78663974406663,309.1527223322191L169.27522589996806,308.27153074662783L169.80220666975947,307.3115143331379L170.3003464548383,306.41770894115325L171.39123963788734,304.4626535089483L175.45999751298223,297.0672098045761L176.5610744090809,295.0761974612833L177.57993972854456,293.2331530397787L178.59144706567167,291.3860351319163L179.62271969328867,289.5382577123237L180.71584679800435,287.5541756349121L181.79889490449568,285.59409052600677L182.80940323873074,283.76716173655586L183.81734705067356,281.947291228862L184.86943130544387,280.08880192393553L185.8366081440763,278.29740897993906L186.84383356690523,276.4644366702414L187.85052427253686,274.6405358589691L188.87867865271983,272.8035602345626L189.8714525300893,270.98838626706856L190.95385038599488,269.0293639404845L192.07537435466656,266.99956366064725L192.88989993880386,265.4936525281664L193.09905729370075,265.1181520369428L194.1837246514915,263.171110706724L194.45006047122297,262.6957732481533L195.05736958715715,261.54650367943395L196.0738252699084,259.7585556776321L197.08642901465646,257.9345768465573L198.09749274892965,256.0979388070846L199.11217090321588,254.27215763130516L199.6226419423183,253.34930611762684L200.11828844761476,252.44052086530428L201.20263263810193,250.4930806284974L202.2893149855663,248.5142693438247L203.30181244507548,246.6712851702614L204.30990574936732,244.8542128350382L204.93898800737225,243.72570957089192L205.29141155380057,243.09318692144006L205.96944583344157,243.28882684036216L211.4700088959944,246.33918242438813L211.60843679556274,246.41458150172548L211.70971483417088,246.47071639992646L211.78604691894725,246.5130383730575L217.1924230994773,249.5217816351069L217.71067681803834,249.81943506210519L217.86685527430382,249.89868024793395L218.05781305549317,249.99384522509354L221.21025348559488,251.75811851257458L223.84013929462526,253.2299957266223L224.97275876638014,253.8843378154561L224.5553255911509,254.6567894101463L223.97421663778368,255.78921705645917L222.93643853778485,257.6191599532176L221.9002862823545,259.44584809943626L220.83876062647323,261.4074987021304L219.75640312876203,263.3769044032524L218.72471127216704,265.19915719580604L217.73190246525337,267.0415046279668L216.7297952369554,268.86749131185934L215.71832270474988,270.71271611317934L214.7224846832978,272.50003183334775L214.70988055405905,272.52273528667865L213.59963778109523,274.522713034341L212.67928255128209,276.18065780559846L212.0475812231889,277.293399369024L211.65533984432113,277.9843405219581L210.5655108274077,279.93409891286865L209.50006249014405,281.943497645334L208.49323884851765,283.7523417251359L207.51617639127653,285.558472295932L206.4736025116872,287.40827459312277L205.44428084796527,289.2414061742602L204.42150710418355,291.07192561567354L203.444746758556,292.8809079264611L202.43798552107182,294.7067474231735L201.4431351008534,296.5105152280594L200.35696208666195,298.51284348279296L199.26530460454524,300.4528036720003L198.25574195219087,302.27660472199204L197.22179355248227,304.15350790183584L196.19752405231702,306.0059538528876L195.17700809511007,307.8492219278851L194.1582033810555,309.6982673116145L193.06598937051604,311.650026843723L192.98846831161063,311.8091950089729L191.9604191010294,313.67177278071176L190.94955507910345,315.5127193830849L189.93662309349747,317.3525514361245L188.91898751351982,319.2045209246862L187.89569155976642,321.04827944166027L186.87927143022534,322.88739269929647L185.77121046333923,324.8617533209326L184.68251672931365,326.85320198963745L183.67135186417727,328.6815984927525L182.68443012842909,330.51564939886157L181.66513170054532,332.30488925606187L180.65175272666966,334.13678626762703L180.3188648725627,334.73403721461364L179.63967767867143,335.9525994345313L178.6333383017336,337.7577225367859L177.6511758673587,339.5928672669834L176.64410080033122,341.40509659027157L175.62580237351358,343.23006532782165L174.63337919587502,345.04744915098127ZM297.2606292182754,251.52044819189177L299.3385106907226,253.3275228435523L301.5762652098492,257.3929490004666L302.972035485931,260.74792016186984L303.017011427728,262.71247986708477L301.2376370833372,265.7940438193327L300.0284055067168,268.0160757870908L299.5536490168015,268.5087773575651L299.19217520102393,268.68266993064026L297.46489568668767,270.6186774033413L297.76181564485887,270.91873537430365L296.2327690306993,272.81534924735024L295.76200928215985,272.54023132417933L295.70259374089073,272.5055039318104L294.08555165020516,273.37000533615355L293.4634120546398,273.75116813898785L292.78075919751427,274.4382235073863L292.4954073355184,274.7541045486141L292.4359299901698,275.3974074410653L292.61479424114805,275.53993101484957L285.16532744909637,286.36206300022604L284.93876105200616,286.2085141600983L284.5081613836519,286.9220740235469L283.970669635426,289.0383581845381L283.0528108503204,292.60640731154126L282.5845407251909,293.2251638484013L280.50025939312764,295.2086831479828L280.4954389296472,295.2175375887455L280.38879304984584,295.4134067730047L280.2587868508999,295.6088044637727L280.005433223967,295.6848623538099L279.9804889061197,295.69235203703283L279.8412825920677,295.80395050776133L279.467581587669,296.19782115126145L279.043176968582,296.41771886382776L278.57941475807456,296.4824903299159L278.1898885537812,296.500775134773L278.01522483542794,296.42089505383046L277.9859369279584,296.4074994936964L277.79124209217844,296.33285169675946L277.4666479523876,296.3325738823478L276.74300201269216,296.6163083343272L273.6179796582437,299.4723098006216L273.20698005278246,299.7736381005816L272.72289531544084,299.8899206227943L272.591138025542,299.9215729095449L272.387379907188,299.9941514576931L272.18712807787233,300.0666249660135L271.49644175567664,300.26880644849734L270.63451577877277,300.0128524285101L269.1356195710832,298.8433933824708L266.6338589505758,296.90479818522L265.9110516960791,296.3695905453351L264.99667245408637,295.97655003351974L261.436127106339,295.1128788720962L256.25662182996166,294.2035658960667L255.41515774760046,293.07509115323774L254.5183822826075,292.1575143575901L254.14574053665274,291.4821175866382L253.95115118275862,290.6829709549056L253.989281031274,289.82478176821314L254.1007133438252,289.35083158336056L254.28668849909445,288.96845175430644L254.56141079915687,287.66611516822013L254.626588969375,287.11000280149165L254.73928309843177,286.4283001738804L260.428627279005,277.6187602848513L261.3805270707817,276.2577768045012L262.0291226664849,274.68153533340956L262.38296203888603,274.75551220310444L262.6811494358117,274.35102206710144L264.066675183858,272.4748475457309L265.46283368591685,270.9852183845651L265.71025092777563,271.0908219610719L267.79067626275355,269.96731973027636L267.9236999055429,269.89548361932975L268.05117588091525,269.92570385345607L270.13521297989064,271.1245010295097L270.41016982795554,271.0564800158172L271.55908538994845,271.47385946036957L273.0990081070049,271.51039845751075L274.0912242740451,271.5747569339874L274.3429637864465,271.64528246312693L274.6535890416999,271.7323057364265L275.2013469497615,271.8519287919771L275.5624609941442,271.8485654400429L275.89316263081855,271.7407580166473L275.9850164806703,271.4608968356624L275.97797543986235,271.1448992399819L275.93328721713624,270.9492242701381L275.92615860668593,270.6934104220709L276.0239435345575,270.4452773308876L276.0168150253303,270.1894628186128L275.93168203902314,269.9318373999413L275.87503242719686,269.76041456943494L275.78565747165703,269.3690602553979L275.77097280256567,269.158374959763L275.7713705768401,268.88000464181823L275.52421810509986,268.75927030875755L275.1496465310629,268.64587197086075L274.91743953412515,268.5552588702849L274.8726024807838,268.4649102817493L274.99267932298244,268.35222614319355L275.50973398948554,268.40563532967644L275.8018979259359,268.49634184731985L276.2816783259914,268.4142754477216L276.6413437553565,268.46746205301315L276.9246717081405,268.5695280086511L277.03094048640924,268.5733877032326L277.04610425332794,268.47557740406774L276.9863335182308,268.35506952766445L275.74941075083916,268.345427551234L275.17994976590853,268.17889589355036L274.7376020401425,268.2082466434804L274.6547348006279,268.22629666553985L274.4976204899431,268.26051535450097L274.5796139422455,268.5391009206651L274.7143493220501,268.6597415795113L274.84929957194254,268.65244500280824L275.0066242014873,268.7129142057529L275.3134390437044,269.037034952009L275.39512390771415,269.49623257773055L275.36387706454843,270.24120354758634L275.1832890667429,270.6397478521685L275.04792003537295,270.89538221090334L274.8765988535597,271.01990468261647L274.5752606021124,271.05288885526534L274.49571082217153,271.0355536772113L274.29781250454835,270.99242372551817L274.0428369042347,270.96209613342944L273.8778376769915,270.9619580645376L273.66787468997063,270.9166094443208L273.5553318927996,270.9692164856242L273.39033315653796,270.9690788359003L273.2253568858723,270.9388259279658L273.0828333714453,270.9688226831495L272.9552460699924,271.0741209604166L272.79774778033607,271.0739900568733L272.6852529851312,271.0663682736049L272.4827416072949,271.08125991452835L272.1945378166565,271.13010995862714L272.0078600984707,271.09162541112164L271.95415310477256,271.02181091370585L271.93491020874353,270.9317469028465L271.9161782488227,270.84646462340606L271.9531454993703,270.69535576630733L272.46812919562217,269.94737343586166L272.6476121475862,269.62127859843895L273.2148367013433,268.79924849109375L273.311732454662,268.7289722463174L273.40812668256694,268.6590629199636L273.6221686763165,268.2579467411706L272.1564167239703,268.0597043849848L271.71803857109626,267.66375317452184L271.13095288025215,267.09704022298683L270.9756775009446,265.5615584178595L270.9642748516053,265.3826917093247L270.96600168553414,265.20346732439066L270.98084869407467,265.0248551630939L271.0087355662836,264.84782181767514L271.0690738714475,264.67572771613777L271.1353437057114,264.52536582433095L273.1429238902929,260.8931829138601L273.3471157543827,260.11400101751497L273.38411626184825,259.9705069643387L273.70540931104915,259.0270451332326L273.80800155439647,258.80926578537037L273.89527626379277,258.58485816536995L273.96681174528203,258.3549064060353L274.02226234035334,258.1205214324873L274.0613600962679,257.8828355947626L274.0839160622563,257.6429971989419L274.0898212030879,257.40216495862114L274.13009356634575,256.467198286191L274.1614827637677,255.73821033079003L274.1636638077034,255.6873554123449L274.02662813078496,254.36001807602588L273.83611962152645,253.5446760006016L273.6608468865452,252.91922948652063L273.513169460668,252.49453213585366L273.47387167275883,252.38736266580236L273.4432811936713,252.30393939565693L273.31050299611525,252.3271477168164L272.95380846533226,251.4457186628133L272.8730898259091,250.2464866318478L273.34192031552084,247.93227387777006L274.0970050402684,245.25973120228446L274.1386198809778,245.11243826444843L274.1792099447339,244.95966079730715L274.24198795997654,244.82358006227878L274.3477188393881,244.6829886103369L274.5906634827552,244.35994289148948L274.65686641831417,244.25601061427733L274.9037477427337,243.87077935769048L274.9368856684596,243.81632010017347L275.01605798187666,243.69702402230178L274.6149234750774,243.4648242660478L274.9061660587322,243.02837744590943L275.0005459243257,242.87654564088734L276.385519123869,240.2744185450283L276.50774347790866,240.0104904656764L276.61656310781837,239.75423034116102L276.7866466116102,239.52077406120952L277.23868736904114,239.0981943316292L277.6847908155178,238.9835527716059L277.7180243243638,238.97501383366762L279.7319495152915,239.01273215452966L283.53329584005405,239.35247557000548L284.5865186295414,240.0570819632121L285.12472834266373,240.4171499343356L286.3871024771652,242.30920172353217L286.8308878999087,243.4046152921801L287.0571443126828,244.01587803459552L287.4846650419058,244.75075932317122L288.0575258129393,245.7525185830891L288.5506376165431,246.46590767084854L288.63901670248015,246.60373956015974L291.00965830721543,248.04155842958426L291.212466980709,248.16393845593848L291.38888877723366,248.26918794118683L291.5443950861227,248.35921152544324L291.5613996705506,248.36540748573316L291.72978335167863,248.45141688530566L293.77909057671786,249.49819487932837L293.9488808378519,249.54923191308626L296.7513554751931,251.01646476522728ZM282.8272336064547,73.55593910704192L283.10470713002724,79.37572794420703L283.21313069344615,79.44911249251163L283.5343735451461,79.43293773826736L284.82972017358406,79.36772037287301L284.7642720340227,79.5850657163246L284.58193268973264,79.62361551114009L284.5573218423815,79.70453731532325L284.60637246927945,79.7397768401861L284.6869916174328,79.7574427658983L284.56063194732997,79.92274242141866L284.4448841258127,79.98598888864217L284.38521287514595,80.06688077931176L284.2835780324822,80.02807632982149L284.19588090272737,80.0843080712948L284.09872241097037,80.15535127445764L284.11089820141206,81.03797915347968L284.1698423088237,81.11720763145422L284.1037191489886,81.22801771626109L284.1012500456418,81.91700596401643L284.1699732140987,82.77862674047356L284.2767116248142,82.83247713296441L284.31497375280014,82.8582266552985L284.0472013678227,83.28008797162329L283.45511599842575,84.24144535099913L283.1236485989939,84.79767829838966L282.9446950071724,85.09797950311622L282.4342754993122,85.9596482092602L281.81154768849956,87.01815919438377L281.39300703885965,87.74177621945273L280.5048069975164,89.31423968884337L279.5553611422074,91.05037497119338L279.04996853435296,92.02203239663504L278.3812265955785,93.29026493532001L278.2756765410595,93.4334624325129L278.25067488796776,93.51474174438044L278.1633165682142,93.66482344470569L278.08217993870494,93.80861660520895L278.001024516765,93.97120428312337L277.98227657881216,94.03372342794319L277.94485814493964,94.07122202010942L277.8449884329457,94.25882335501956L277.7139091967547,94.521431728077L277.6701813614927,94.64025396814395L277.55784743567347,94.84032109363761L277.38931755165686,95.17798804631457L277.2457439818536,95.45623484777752L277.1521440448123,95.61254298096173L277.12716163753066,95.70008944770962L276.91493652635836,96.11901921831304L276.8649965461518,96.20656519167824L276.7027132829244,96.53797465420212L276.660760367231,96.62166515026183L276.44458778831176,97.05291859408317L276.38719051124644,97.12685783703637L276.354361769103,97.23373744136188L276.05900101395673,97.82135336342617L275.5979986668972,98.71473838831298L275.5585789664183,98.79113081784453L275.0335497808119,99.78554553781578L274.5495720541803,100.67722893835162L274.09022778316285,101.49903011225979L273.6636494663835,102.32085677163559L273.3601255558606,102.91668432713777L273.0320313972479,103.5166056353919L272.76951208058745,104.03436516849615L272.48239420040045,104.59319749180577L271.77694681531284,105.93275700519735L271.41542434116127,106.61816031832132L271.2416263827472,106.94265803728194L270.85728184451,107.66416106076213L270.7901360197866,107.80836458841804L270.71746271598386,107.95739759891876L270.6405642229656,108.10150520634488L268.8892357540899,111.38359494047472L268.8016393246944,111.5559116765944L268.6793212733173,111.79433560813777L268.57436989742564,111.99493265339697L268.1575490081159,112.78706971921201L268.02870506446925,113.02680999528093L267.93581522084423,113.19508895692707L267.83215472919983,113.41708269061928L267.72493658788153,113.64441875230114L267.60340634707245,113.91653089082683L267.4854575628706,114.17790025526483L267.3388969868829,114.54132458433742L267.2137543231365,114.85641016424051L267.0993489528191,115.16435030204593L266.98136655939743,115.47229008357681L266.82398585617193,115.95208398740215L266.7130955395405,116.30407747237768L266.61291469834396,116.65141617902555L266.43761393934255,117.27808039540832L266.31951039485284,117.70777186144551L266.21576765039936,118.07302991791221L266.1155693384644,118.44292899435095L266.06192063030903,118.60764283573371L266.04043579279096,118.70789157270337L265.93310121438117,119.09104506284348L265.82936881438945,119.44196408944845L265.7792628915049,119.6227990151092L265.7147466093884,119.86554865934886L265.61464969886583,120.24228365438466L265.58607685702736,120.29239105257147L265.5503278490214,120.37116495442751L265.53238829568727,120.51082942371431L265.34644869779004,121.03359083359828L265.1698205663415,121.43492540268926L264.6251123138063,122.8004658853315L264.3243988264294,123.5072136184026L263.94923576244037,124.38887807208812L263.2770577452902,125.98478291023639L262.5562611684145,127.6781704257155L261.16147755732527,130.97035023577337L260.80003646356636,131.95383957505692L260.4930301088898,132.65894997952273L260.3413811728242,133.01336707176233L260.1242329236702,133.51216619028128L259.92576981018647,133.98474920657463L259.79097103045206,134.32227646860701L259.68426192339393,134.55668841239822L259.5419782824756,134.92048955689825L259.306109528261,135.46431361669966L259.0047789263481,136.06997770161252L258.70899662349257,136.76379304467991L258.47683851551847,137.34139039728325L258.28397995440173,137.83081930283515L258.07339637790574,138.393524176543L257.8835210283287,138.94334900955437L257.8219307701511,139.13348128319194L257.7143325751531,139.47605523647508L257.18826692405855,139.77841380541213L257.02611485883244,139.87142773118103L256.8681226290937,139.79230552836088L256.75106561233406,139.7398647294467L256.62218885391485,140.1038619096944L256.3902794640162,140.75884850787406L256.1687527236936,140.99825881245488L255.6304331063293,141.58003935732995L254.70937846033485,142.5151993596519L252.77771505046985,144.38717821790488L251.8909920110891,145.31804186491354L251.25492373423185,145.95002532481158L249.79781734276912,147.46747418488667L249.55107419163687,147.72099091630662L249.31131102130166,147.9811686619505L249.0787061988667,148.2478138106817L248.85343136021402,148.52072852475976L248.635655564256,148.7997092174628L248.42554081455455,149.08454828741378L248.0004138967488,149.76968269667123L247.89507774831145,149.94351237626688L247.79568011278752,150.1208310072543L247.70233469858067,150.30143472654163L247.61515014109318,150.48511500372842L247.4380781520158,150.8457578719681L247.27614414689015,151.21349992527394L247.12963038336602,151.58770074007043L246.9987912896322,151.96770949062193L246.85818265660782,152.4537778984668L246.78291506209644,152.68878080871946L246.69344123569317,152.9187107396865L246.59009763985523,153.1427031976491L246.47327288193628,153.35991601874412L246.3434062526212,153.5695325347042L245.887040397065,154.18998575049045L245.75100596176344,154.36653854449105L245.6296899051813,154.55358897590486L245.523892141151,154.74990360664378L245.43431019844138,154.95418840204366L245.36153484712122,155.16509582605795L245.3060459093831,155.3812351445813L245.14746079966426,156.0931135523715L244.9893103246868,156.43640757439425L244.53772415040294,156.1866056780127L244.48510745103704,153.6452823382133L244.46946662745904,153.42750656192948L244.47060040591168,153.2091682310711L244.48850209178636,152.99156749453687L244.5230651408492,152.77600011770846L244.57408379300614,152.5637497662683L244.64125454286113,152.356080554644L244.72417712915922,152.15422893420327L244.82235781347845,151.95939690929663L244.93521199343377,151.772744690752L245.06206768302945,151.59538378557772L245.25097231802647,151.2967378324247L245.42809932492673,150.9909043670341L245.59317769817426,150.67835118659423L245.7459532187786,150.35955772954912L245.8861938379996,150.0350103421806L246.01368496546638,149.70520545901672L246.10026672304957,149.45723808041657L246.2043759652297,149.21615755434323L246.32547440417693,148.98321054366534L246.46293589405832,148.7596016599564L246.61604991997592,148.5464878821076L246.78402444225503,148.3449706260435L246.96599089563824,148.15609199168102L247.16100835302495,147.98082872733357L248.62045096812653,146.33446166818612L248.81571449438343,146.1435345247737L248.99892012021155,145.94092122340226L249.16937517077895,145.72738773850142L249.3264351702237,145.503741332941L249.4695062787505,145.27082750736736L249.5980473110103,145.02952750616532L249.71157254750142,144.78075291527784L249.80965272535104,144.5254442482983L249.8919169702276,144.26456672934L249.95805419926182,143.99910664382332L250.25138430163497,143.28854471973318L251.06233521693503,140.96022522309795L251.85329480821383,138.69570547719195L252.58587078857818,136.58804877877992L253.263112245535,134.6765785914613L253.5986566937063,134.01388951086847L253.8821139712818,133.57939330430236L254.19584217606462,133.16405570793722L254.53782479974325,132.77097790766857L254.9056054741377,132.40303019773273L255.29636438921443,132.06260876457964L255.58012019094895,131.69480655186635L255.58038121974096,131.69446647407312L255.58059176508687,131.69409759665723L255.8288266036252,131.28441772171936L255.82890488396515,131.2842885934515L255.8289812419389,131.28413216405897L256.0333390267624,130.8377052542055L256.0335462309886,130.83725983613112L256.0336771912989,130.83681582393183L256.1869710733299,130.36074190738145L256.28360997277196,129.8638948189473L256.3200591891946,129.3573067430989L256.3200880159857,129.35707032681967L256.32008818822214,129.35683730170422L256.2956086000777,128.85169623019465L256.2955850381404,128.85137982400192L256.2955308603414,128.8510921576526L256.2119698766619,128.35782913968433L256.21194619644666,128.35767263367597L256.21189192152815,128.35751610483567L256.073418898799,127.8857782172563L255.88639555039117,127.44439966911159L255.88621132003027,127.4439793026686L255.88597755305818,127.44356182451884L255.6578385293542,127.03868130450428L255.34755181646324,126.23400836862857L254.9981807958684,125.00574800801405L254.92526157712564,124.69815082308196L254.9250790491351,124.69738870696165L254.92500334064243,124.69665543281008L254.89390948295477,124.37794944865163L254.8938588158635,124.37750528704782L254.89388441521442,124.37703241837153L254.9065982249449,124.05489931463671L254.90662359492853,124.0547399164061L254.9628498745733,123.73866601374175L254.96290397137636,123.73840572088375L254.962982370198,123.7381181451492L255.06002399444696,123.43682511783845L255.99964924907545,121.6932251570397L257.0324269613775,119.81451149762142L258.0431210578827,118.03446106321644L259.1360794453067,116.06286637752783L260.19955428587855,114.13177862999146L260.3801777861372,113.80576700458187L261.2172942502075,112.29485477039998L262.1971054362075,110.51143303353456L262.3839105127845,110.1892531868798L262.50206347039784,109.96089622906584L262.6907327985973,109.62719056721835L262.75316055244184,109.51674717011338L262.8248281170381,109.4066546495742L262.89086941076675,109.28308327213745L262.9568850256037,109.15954058458738L263.099922200985,108.89147453209443L263.2429597762821,108.62340334219334L264.24808458416373,106.80268502488616L264.75892749155173,105.89357078133617L265.36923724084045,104.79245603414893L265.94873822605587,103.73877399624325L267.9604489543417,104.78176397111383L269.55633902025875,101.48275954260316L269.8110008299409,101.08637990475108L270.1036589931464,100.71332994847035L270.4308612780587,100.36898020996887L270.7882200576132,100.05791402471368L271.17061298768385,99.78382283513201L272.8710655250761,97.29675274352485L273.74504947892274,95.14885591028724L273.84778794887825,92.91227974015055L272.38924856178346,92.07691896303731L273.3938419574988,90.25024719325302L274.3624652310973,88.4987022181449L279.00200121387024,79.98528123882716L279.04835109066335,79.493672823417L279.0509199994558,78.99382545471599L279.00826856365893,78.49168151915364L278.9201268609031,77.99345318919222L278.7873009957839,77.50527905288618L278.61166249495,77.03316021821229L278.39618707838235,76.58252536410873L278.1446292678884,76.15817387275456L277.90727037531906,75.95223511519725L277.62495612405473,75.76806496805511L277.2991358638974,75.61785385009716L276.93526123967604,75.51439981444855L276.5434463825077,75.46937549750146L276.1380751187389,75.49136154657754L275.736484233028,75.5838392876758L275.35674562631175,75.74430034046236L275.0149736390158,75.9642204841366L274.7231679157703,76.23054765754205L274.4880782698747,76.5279081545159L274.3110439701413,76.84090918874426L274.1891304466408,77.15595340168511L274.11633899551816,77.46230437603663L273.6517075895681,75.71332884776348L273.7016822663136,75.23111986121512L273.8050287278893,74.74699839339883L273.9628076534427,74.26992039164179L274.17407334045856,73.8090104444127L274.4358938734804,73.37319849224878L274.7434419779747,72.9705683842476L275.0901930955879,72.607884986297L275.4685255647637,72.29027961673273L275.87009496361134,72.02090798680729L276.2954605878913,71.6672749674326L276.69648610585136,71.27000309128198L277.06684623731417,70.83154916051717L277.4005487273971,70.3556371301529L277.6922847608512,69.84704290346417L277.9375198085618,69.31158615640015L278.13291020758334,68.75582741554535L278.27630094002234,68.18685205881775L278.30431745853275,68.00902836374007L278.3933069627383,67.58804455584323L278.4661649809859,66.97696639220521L278.4817038773326,66.46469453176542L278.4345803000615,66.40606337523786L278.1122790175141,66.07960303928121L278.0403838919592,65.98290150551475L278.8100957123679,65.6115417778492L278.89294787991093,65.57159243065689L278.9342816758726,65.66227575814992L279.0343931874377,65.85394015331985L279.1758475108945,66.13605594188266L280.2140578444523,68.34025477604882L282.8183248464193,73.37217279541073ZM275.2294636388251,18.908906439508428L275.3500357999292,18.993801767966943L275.4689044530387,19.07326821074821L275.43982733465964,19.115179231201182L275.4562987971876,19.153622366284253L275.4675263692625,19.19392430280277L275.473853368283,19.24487908941228L275.47181479781284,19.296187383297365L275.461465285538,19.34647444037546L275.4430821403221,19.3943928811932L275.41715792164905,19.4386587926856L275.3843872412399,19.478086127899587L275.3456481517933,19.5116184848157L275.3019786202058,19.538357410303433L275.25454871659167,19.557586472539697L275.19518519434496,19.649965709017124L275.1513489255449,19.75070642888022L275.1241747594904,19.857200551472488L275.1143661774113,19.966691054956755L275.15336281704367,20.082529971565236L275.2101751966984,20.190689806782757L275.28336382532143,20.288430115935626L275.3710742928961,20.373274461264373L275.4710842570348,20.44307315495098L275.580859751004,20.496057723052218L275.69761938625015,20.53088570931868L275.81840482287225,20.546674687691848L275.9401557229867,20.54302461790212L276.1759460385947,20.55869769855053L276.4122082841641,20.554099171509733L276.6472161866841,20.52926263504196L276.8792526369507,20.484369551966665L277.1066222342197,20.419747924403055L277.32766367233125,20.335869898219244L277.5407618768804,20.233348313515307L277.7443598048412,20.11293222857057L277.9369698202936,19.97550144813431L277.95224625317496,19.893393581558485L277.9771657579986,19.81369977662689L278.0199969468522,19.72157298483944L278.0756819040689,19.636653761539492L278.14304378369707,19.56073682481656L278.1626800367667,19.57277148401772L278.264892149542,19.635416890087072L278.4067053182516,19.57230609229009L278.55358776732464,19.522224072919926L278.70435442824964,19.485574912076117L278.89186660794076,19.459467426830088L279.0810987894947,19.45411929313559L279.2697772048705,19.46959477463679L279.4556347404432,19.505707916803658L279.63643818031414,19.562024781742366L280.51436643098714,19.794161327852635L280.8304507630237,19.932113089205814L280.9223487537529,19.95614139844838L281.0168476656254,19.965565373844584L281.1116587735596,19.96015677275136L281.2044857913861,19.940046588075347L281.2930804854259,19.90572187579528L281.3752971244685,19.858013959616073L281.5200782317843,19.840931588158128L282.0781012606458,19.94850333215436L282.31627545208903,20.087360605670256L282.3929072874889,20.132037901174044L282.45644683300634,20.169084173248848L282.50932366985944,20.23287884412275L282.5663859694323,20.304510347297764L282.7292783189041,20.4256002533657L282.732305034966,20.438315746883745L282.7949697787699,20.545269359237864L282.894916172605,20.618332760132034L282.9359426300798,20.641650374949677L283.0354278360901,20.681995113613084L283.0980717834318,20.70107410394121L283.14421608723933,20.704019112032256L283.1605142735352,20.679516637901543L283.1795367159939,20.70448496431345L283.15118268155493,20.74635852528445L283.1399206821807,20.779359019579715L283.1803387029504,20.7883180755598L283.221246989473,20.801153896769392L283.27393168897834,20.853085305323475L283.35435944981873,20.916979493995314L283.4511389583058,20.951777983951615L283.5113071297528,20.962009153096005L283.55875171837397,20.91626264047227L283.56461735384073,20.960045825646375L283.58782470494043,20.967417122752522L283.6165527923149,20.947796143358573L283.640357329743,20.969498703241698L283.65117922434,20.991635567814228L283.6432391999115,21.020273385074688L283.6578839532449,21.02220917280647L283.6477491739788,21.07341713961796L283.62641934573185,21.109106480304035L283.676914915035,21.135061681066873L283.74447865065304,21.093156259084935L283.8446845161088,21.158324143121717L283.8787109410623,21.207485584236565L283.9964739936695,21.296524020799552L284.0103797586635,21.341868319170317L284.05309509308427,21.358372458649683L284.0754085792869,21.407845884445123L284.09930275240913,21.420357961280388L284.10011994981323,21.452377881738357L284.1025636285194,22.008744477687287L284.08948085684096,22.5649598686432L284.0608820367197,23.120587504614377L284.0167897475767,23.675191304719192L283.95723872823874,24.22833599880687L283.96088227277505,24.37804415404389L283.94962038553786,24.52736952327541L283.9235656064702,24.67482035604189L283.8829782544344,24.81892363492807L283.82826382500934,24.958239791027154L283.7159471407358,25.275499488343485L283.62245902692666,25.598854205862153L283.5481246369309,25.927178953657858L283.4932024834561,26.259331462235423L283.4578835402499,26.594156156192184L283.4422905794345,26.930488176032668L283.44647774551413,27.26715743004752L283.47043036849936,27.60299266547372L283.5140650164394,27.936825543249142L283.5772297871008,28.267494702362455L283.65970483762794,28.59384979958122L283.7612031508761,28.91475551118492L283.8813715352735,29.229095482020057L284.01979185445816,29.535776207892923L284.175982483197,29.833730840007775L284.3493999838538,30.121922893755254L284.5394409977598,30.399349855069886L284.74544434502604,30.6650466658175L284.96669332505553,30.918089080019854L285.202418210567,31.15759687811078L285.4517989253509,31.382736927771475L285.7139678973763,31.592726080518332L285.9880130770325,31.786833895224845L286.27298110947595,31.964385177750955L286.5678806511569,32.12476232845802L286.8716858177213,32.26740748959128L286.93494307712535,32.25885358902451L286.99877164670033,32.25891132080869L287.06201344830333,32.267579637191375L287.1886588568741,32.31226004843484L287.3193680003169,32.3429591643071L287.45261407390353,32.359318397720926L287.5868406408699,32.36114666122012L287.7204798120947,32.348422599592595L287.72495670520584,32.340604932876886L287.7306568812055,32.333635689734365L287.7374241683283,32.327705811549095L287.74507315826486,32.322977763818926L287.75339428606094,32.3195810844627L287.76215957157547,32.3176088349428L287.7711288658029,32.317115050391294L287.7800564302306,32.31811325940362L287.81418317143107,32.3303388266213L287.8267826556985,32.352014361385955L287.8804493948701,32.348366545222234L287.92742381751304,32.36833453884174L288.0022373624088,32.39076804781507L288.07746825707727,32.37877170361753L288.1076336907863,32.36838195018936L288.17475995628047,32.31534639172605L288.25255194617785,32.27107555132534L288.3237813707092,32.235333770513535L288.3949082904146,32.2060486630653L288.47923529401305,32.1532444357581L288.5459933371749,32.132515773540945L288.60854673813446,32.10312535618141L288.6670466355572,32.05646707514825L288.6882205833681,32.0782719765848L288.7233690454159,32.056256118186866L288.7644518362358,32.01186263409909L288.8389740229468,31.928654319111956L288.9040509762999,31.8817913759558L288.96085939655313,31.87452668849437L288.99978099911823,31.834548736340366L289.0366155758966,31.803373635731987L289.0557611809636,31.7570403169957L289.10347618625383,31.719154543723562L289.14460756763583,31.681347613033722L289.1920946580358,31.625908190224436L289.22174500481924,31.53989714611089L289.2904155215074,31.422714421802084L289.35285255796043,31.334157090532244L289.37272984712035,31.255966763288598L289.39403542332,31.20522122857801L289.4242647160718,31.171927128292737L289.429489940434,31.053277922910638L289.40471798332874,30.992060106087592L289.41949035663856,30.94577724742703L289.41645209369017,30.87114434877003L289.40705323420116,30.81413861324836L289.4374067329918,30.78964936986449L289.4434885986557,30.747828694657073L289.4536636089615,30.681846332430723L289.4882620818971,30.646307646326022L289.4924837612198,30.633065278976574L289.5252724646125,30.630493237593328L289.540100230166,30.586403265726403L289.61020183499204,30.594374008767772L289.7085441650124,30.586656962754205L289.7874385957839,30.5989431465714L289.78796748569584,30.483067496446893L289.7009557232668,30.46519255026942L289.61381409093156,30.475715172011405L289.55283503845567,30.47543384770688L289.49630155949853,30.45988377739559L289.45948445715476,30.41600049257977L289.4247718292463,30.387417349789757L289.4337628126668,30.324059814272914L289.444925105694,30.262920578592457L289.43197756895097,30.238807107976754L289.42125909178867,30.197228434772114L289.4148822046118,30.164405406685546L289.40422900542035,30.114089249938843L289.3893272978894,30.04188243400131L289.3721821203944,29.97840131520934L289.38757036751485,29.950052823100123L289.3638066579879,29.906227749655955L289.33442052910686,29.902815827023005L289.04582977617974,29.67634010706388L289.0129272468912,29.728643580005155L288.9565115884179,29.686853273655288L288.98941896340693,29.6345551496197L288.90043017742573,29.566375079448335L288.86100822975277,29.61646362648753L288.80030439500115,29.56154602035531L288.84188306186115,29.515838926745346L288.6899583985796,29.40584215206036L288.5575743980007,29.304672534941346L288.43825541215483,29.20793292093731L288.3601653643418,29.142016303521814L288.288702505728,29.05423399445135L288.2312903429556,28.98729438672308L288.13311918766703,29.03058314039663L288.0617273278185,28.92751186998794L287.9967422928312,28.850706957862712L287.95138720580144,28.769624260501587L287.6372776183125,28.936821051320294L287.59776505694026,28.932380294863833L287.5648699365847,28.888276712445077L287.55395728664007,28.82654816492868L287.87685837221215,28.641714210330974L287.85713515157113,28.588814655537135L287.8220775600639,28.511650091444608L287.7980094929517,28.43889941017551L287.76627405171166,28.325370949751232L287.79042112946627,28.312152834318113L287.75532875195495,28.270251239227946L287.7356495503918,28.199704719198053L287.6961884741904,28.137977326390683L287.6632912554196,28.09607721673092L287.66993311577244,28.027757240939536L287.64363890423556,27.96601639907749L287.61297702408046,27.906499149263254L287.61080317388405,27.882245063316077L287.5866640340246,27.860173245629994L287.5954831689014,27.813906536946888L287.5625838894921,27.774209072304075L287.57142335228855,27.73234385777323L287.5494853540731,27.703666901477845L287.5341613316559,27.666189533483703L287.5341811643448,27.644164985380485L287.5056525259861,27.62208965557511L287.4771460966149,27.580193450849038L287.4837502151204,27.553745075056213L287.47500643655076,27.518474403579603L287.4552329274302,27.520657218570705L287.419039715518,27.484258833967033L287.3883573273488,27.448993623736897L287.3795977050322,27.402685506967828L287.36867154351785,27.354196611617226L287.3379782731063,27.30128632877313L287.3072705993545,27.265994248969946L287.3007160910347,27.23513044034189L287.3183409834164,27.182238557972596L287.3161947830813,27.12935118006135L287.29862288208096,27.124931793587166L287.2898810678453,27.085256128833862L287.2657610710012,27.04336283968587L287.24605486699147,26.99927229862078L287.1911509039346,27.003627495083492L287.15827663236996,26.937475019614794L287.1583221727633,26.886792271005106L287.1298364390386,26.847074788383907L287.0947267994343,26.825018347240984L287.0596839125792,26.732407923816936L287.0092371828796,26.65743009687867L286.951119379577,26.605597697445774L286.8787620377552,26.501941355672898L286.82175853525405,26.400529865684803L286.786732807057,26.316730168822687L286.76261758827604,26.266026893397793L286.7450712847349,26.23295029916335L286.7451009231154,26.19988665045821L286.7297963668243,26.14038482766773L286.75616372097284,26.122763491788646L286.75618741242215,26.096335775524494L286.74964659207035,26.05222818769107L286.75844241009327,26.030213336343877L286.7562664557481,26.00816320742888L286.78260851011146,25.99276992304658L286.7782416997361,25.970714395938558L286.81338908540783,25.94872481157654L286.80900897140964,25.939882172009675L286.8353718354483,25.931098043831298L286.83978810170083,25.895839002507273L286.8507920523116,25.858383188562584L286.88593250655686,25.847401350183645L286.9013517862186,25.805545054507093L286.8816195903928,25.763655018497957L286.8948059982213,25.737213790169335L286.8992172938597,25.710761210910277L286.9541379146103,25.688788038212806L286.99369667231804,25.642521276240586L287.0046927674557,25.611699925153516L287.0508794323541,25.541212600815925L287.0772691263992,25.470708319277037L287.10584024275886,25.444279527058825L287.15196110881516,25.42007032627589L287.17835234996164,25.3760197062511L287.19814587326255,25.32315463613486L287.2289167155104,25.29232286795741L287.2838360959722,25.268120186941815L287.286054130469,25.24169434326177L287.31020555851865,25.221868754015304L287.3212324019114,25.188816363966907L287.3431747062423,25.18443128312356L287.3629241709423,25.208700170260272L287.404076991108,25.190884457028005L287.54842107521836,25.220379089019843L287.86806604269077,25.39353619213216L288.00955937229446,25.34427426016191L288.1756064660731,25.35059997998178L288.2739172097645,25.44946882862132L288.2738223004271,25.554422043220256L289.9895309167041,26.558449148156797L290.312759921886,26.682767631617025L290.6288983351551,26.824271759280236L290.9370401617198,26.98255596193485L291.23630233001313,27.157166578472243L291.5258272230858,27.34760315704625L291.8047851367155,27.55331988989201L291.8223025132902,27.566477462925832L291.8374111817102,27.58236189185118L291.8496950964327,27.600535767822294L291.8588159972278,27.6204986377561L291.8645227236848,27.64170078575262L291.86665813135915,27.66355836977891L291.86516341901734,27.685469500152976L291.8600797475956,27.70683081273455L291.8515471066057,27.727054084127303L291.83980045927456,27.745582429444767L291.82516327218036,27.761905636783922L291.8080386078509,27.775574217288522L291.6565310085716,27.93562962395663L291.51795606527594,28.10708852695825L291.3931625043624,28.288900723768165L291.28291463581263,28.47995260314201L291.1878876723058,28.679073966894066L291.10866359461215,28.885045198330772L291.0457275878289,29.096604732985725L290.9994650709559,29.31245678717096L290.96026843279833,29.65886183438124L290.9394973223971,30.00686972727999L290.9372105456132,30.35549353629176L290.9387624858937,30.374870617626584L290.93706493492937,30.394235389700043L290.9321656934917,30.413042578249588L290.92420271539595,30.430762610238162L290.91340022327495,30.446896524867043L290.90006239453214,30.460990023522754L290.88456479643355,30.472646261681803L290.9137089881697,30.522482497428427L290.9306812067516,30.50981833312835L290.94923243887024,30.499627357989084L290.9690074682003,30.492104707940598L290.9896276452346,30.487394425741513L291.04129284757073,30.49937922139361L291.09074240361224,30.518598986163852L291.1369764842675,30.54466510967177L291.16018962697126,30.561017550717224L291.1804269735876,30.58095997753844L291.19714384994586,30.60395565161889L291.20989033344085,30.62938565814693L291.21832336255466,30.656565564509947L291.2222159697849,30.68476384105452L291.22146339016035,30.713221550307935L291.2232162744622,30.774055770452833L291.2340432826604,30.833937045463244L291.25369920310914,30.8915092228126L291.28173887357116,30.94546844699653L291.31752726327977,30.994592688875855L291.31758764912956,30.997560480740503L291.31815695526893,31.00047335754789L291.31921812371,31.003244041407015L291.3207393589837,31.005789515125798L291.3226750806789,31.008033509438974L291.32496728928527,31.009908788095345L291.327547303983,31.011359162715962L291.33033782048733,31.01234117599961L291.33325522733503,31.012825404352043L291.3362121111131,31.01279733896081L291.33911987545434,31.012257820519153L291.3418913958885,31.011223014706047L291.3444436300488,31.00972392708354L291.34670010613627,31.007805474262568L291.3534508087032,31.003895960195223L291.3607271609071,31.00109345218516L291.36835038056597,30.999466808818397L291.3761331627902,30.999055997133837L291.3838842822297,30.999871110980166L291.3914132914797,31.001892122701975L291.3985352005111,31.005069375532912L291.4050750217866,31.009324803046184L291.4044888619683,31.012644028116483L291.4044650742435,31.01601492118789L291.4050043313764,31.019342149302247L291.406091382436,31.022531614114996L291.4076954842312,31.025493113338598L291.4097712706425,31.028142892129836L291.4122600357514,31.030406011326704L291.41509139421396,31.032218467225903L291.41818527143914,31.033529000953422L291.4214541686524,31.034300549246836L291.4248056373908,31.03451129149471L291.4281448937254,31.034155267858296L291.4313774992479,31.033242546996917L291.43441203184193,31.031798941941815L291.43716267094715,31.029865279459045L291.4534179016191,31.030650253567728L291.46933741972316,31.034041573642753L291.48450925637735,31.039951478189323L291.49854079142096,31.04822702916863L291.5110689137946,31.05865406979865L291.52176941826474,31.07096276638913L291.53303139304626,31.089329676062334L291.5469001258025,31.105801705707563L291.5630643972545,31.12000921816798L291.58116147542023,31.131633393102675L291.6007852559269,31.1404133807373L291.62149537497316,31.146152155881282L291.6428270910401,31.14872093888698L291.6574956434197,31.151036167808343L291.67156543934834,31.155800663516857L291.6846337277093,31.162878041010117L291.6963264258811,31.17206570864073L291.7063088279101,31.18310066703998L291.71429518566583,31.195667037638486L291.71720345161157,31.217158443367225L291.71676743074204,31.238842819133424L291.7129976055003,31.260198902789853L291.7059845983167,31.280713324144017L291.69589699298376,31.299892945869942L291.6829772821511,31.31727671706176L291.66753603806137,31.33244675748574L291.649944446719,31.345038401312195L291.64555206685327,31.346103369185585L291.64140274209785,31.347899557324126L291.6376163001696,31.350375094029005L291.63430208916543,31.353458488476463L291.6315558196802,31.3570606958383L291.6294568008161,31.361077688387013L291.6280656497984,31.365393460000632L291.62742254140903,31.369883376188227L291.62754604782094,31.3744177732151L291.62843260227237,31.378865702921757L291.63005660200724,31.38309871443198L291.6323711477744,31.386994562970358L291.6353093981452,31.39044074130652L291.6474802168668,31.395451860458707L291.6587798509572,31.402213242879952L291.66896023991285,31.41057645584806L291.6777978941391,31.420357902010437L291.68509880109923,31.43134284928965L291.6907026846311,31.443290145442006L291.71866062737536,31.420280398291652L291.7597930635675,31.413034146477003L291.79204626227147,31.413064126318204L291.8162386442418,31.410658620588947L291.83238462760346,31.391245269798674L291.8412714130245,31.372635801395518L291.8670836208039,31.36294732877286L291.88886129530147,31.35730193121708L291.90901840268634,31.359748189745005L291.9267591126845,31.35814586575725L291.94853925626376,31.350881161983125L291.9743439985323,31.349286345372093L292.0009483376343,31.354168073667097L292.0267445962818,31.36228378159285L292.04850081249606,31.380923717544647L292.0654082734254,31.409271613913006L292.08876898148446,31.43195791580365L292.11134018632583,31.44250203925185L292.13793627973064,31.45628756667429L292.15001812268747,31.470869721582858L292.16452488626237,31.478168197209015L292.1645129134122,31.491120259757736L292.16393493459327,31.511917662457563L292.1636796517705,31.52106898621423L292.18301619403064,31.539705205024802L292.19912785463384,31.55428964785824L292.19507786192116,31.574522902141325L292.17409380563186,31.593121064972365L292.1563366528135,31.61253286608553L292.1442283708311,31.627091014306643L292.14341108634835,31.639232172747143L292.1490479799686,31.647332523585646L292.16436849799356,31.6473467945616L292.17727386322804,31.642501854119473L292.20308949251194,31.631194130517542L292.25631376344245,31.625576621634536L292.2821371909813,31.603744843509048L292.2974828686274,31.578666622910532L292.30637568156817,31.55358092112874L292.32331683154916,31.543884248821996L292.3434843601426,31.536616629862692L292.37550995263155,31.531084738337086L292.40626381358015,31.532072329719085L292.44297967260354,31.555784164869692L292.4792261479015,31.599982316678506L292.4905327062297,31.633233168453444L292.4894290045486,31.65242879827565L292.4882299773162,31.673300715905498L292.5222055176273,31.717953746629064L292.5652730280126,31.744403368618805L292.57538684268366,31.74398896137427L292.5979316830635,31.743067201954545L292.61650846886914,31.763572258525528L292.6255578129203,31.78771576937288L292.63419657954364,31.806631249928614L292.67558298955555,31.79528888047207L292.76536179299,31.79022316681221L292.83461648848606,31.790287909141625L292.8731222784263,31.75684855025611L292.8603603030788,31.689891230271314L292.8168584446248,31.57913247939723L292.7502134820097,31.530144479314913L292.6451151765359,31.457951207485166L292.56307153889793,31.419251505169086L292.42721358838025,31.32642966254207L292.38621198074543,31.28519349292037L292.35039500615676,31.18473907870066L292.35305139867705,31.084321956004715L292.3864860452304,30.989081649357104L292.41989158908837,30.922165697644232L292.4737598958891,30.91964114268194L292.49944494868396,30.881041917775292L292.5738813831704,30.827039307216182L292.6431874713744,30.770455639023567L292.7022477542341,30.700990271259798L292.73558182266424,30.711320687973057L292.76888917182805,30.752549861674197L292.82787735012244,30.76032896769175L292.8509957003989,30.726876992121106L292.7997567617276,30.659879932223703L292.7997997556813,30.61353422232787L292.8152442945575,30.5543253904616L292.8306740215339,30.510566910394118L292.8819870733132,30.49774079589406L292.91280164636555,30.45914634015935L292.95901686153957,30.41026700702787L293.01294510570006,30.34337016326026L293.08482222555904,30.284214097468066L293.19261087090126,30.219943498334032L293.2978222229285,30.17111800526618L293.341470269399,30.124811110232258L293.37744029349415,30.060472258512164L293.4108655140153,29.972957564896205L293.4647724580718,29.9292351014592L293.5058417553664,29.898374246491585L293.60513666435145,29.89040448059677L293.6211559266376,29.85349349291937L293.65308138992987,29.75242570754199L293.8645926404861,29.502354683718295L293.891131389566,29.514742157261935L294.27497062907787,28.729667701380095L294.2414577131567,28.712871589930728L294.66548915591557,27.85577956495399L294.8374069450656,27.939050460481667L294.41591573425103,28.797543009350193L294.3748553957266,28.776370479361503L293.9763500627014,29.562536476383684L293.98791858530603,29.569022243609652L294.0178976073512,29.729899118756293L294.0720499228919,29.654147940149414L294.14331467068405,29.609826397689176L294.15807498060167,29.57777464434912L294.1900045458169,29.590127236646367L294.2244046081905,29.5605888296559L294.2170838487509,29.511264058659435L294.245373616548,29.477994450222468L294.3068169131584,29.433690987192676L294.3780661356286,29.40662266247091L294.51980584670673,29.376710956843453L294.6368641501176,29.349186015766463L294.7230365569121,29.25595778961724L294.846982306859,29.20770176348742L294.9916588619526,29.111066857134574L295.06407103242236,28.986731497454457L295.34993390279124,28.841884500638116L295.5221357033588,28.74873651198868L295.68052805328625,28.70397565580788L295.85449348020484,28.571082140115323L295.9784857648483,28.502090890455293L296.2607934422849,28.471263496598112L296.5672020400816,28.419722702237777L296.6946673639468,28.32653384389414L296.86004774909816,28.185008812550223L297.1510836382804,28.010778259442304L297.38180887230556,27.928069918081746L297.6709261923388,27.987077285069972L297.9211034740438,27.99704933441535L298.10113870276837,27.954273833689513L298.3794607394666,27.94033509065048L298.6530744622869,27.91692538499774L298.83232388997567,27.917098500038264L299.06815674569225,27.941000149934553L299.45491258736,27.988728312731837L299.8463861439377,28.03646182596276L300.1859118505963,28.145702993890154L300.37924318455043,28.216921333718346L301.14792740915436,28.502314222423593L302.05310973653104,28.872134251345415L302.1055730979715,28.901971364335623L302.54761858063284,29.085602557679522L302.7552786479064,29.17465461466054L303.45449937548256,29.379394354793476L303.6475881249644,29.487294115271652L303.982945717813,29.615708064826322L304.0960429710685,29.640831735319807L304.1947323923814,29.684749262887635L304.3151897871576,29.78700723403017L304.4288528927136,29.858421980999992L304.532271596574,29.90239701757673L304.65470009483397,29.9371257617604L304.7863139662368,29.932658956051455L304.98518230119953,29.96020205396053L305.3337472480489,30.04991666645219L305.5997146482405,30.15987410406524L305.8373528365046,30.27023070785799L306.3076215169567,30.533747726105503L306.7721553748124,30.837334511001245L307.7409049979469,31.484474606491858L307.8735344867164,31.57408189580019L307.4182578549662,32.00349517961149L306.4329329650209,33.13925235682109L305.3238162677444,34.35223647340899L303.9343391593429,35.95280690550862L302.8173172453826,37.16926398318901L302.51945488806814,37.72017182172567L302.34218853578204,37.62107391875179L302.216877701896,37.55729451368097L300.21425710906624,36.4324388417881L297.52630213234806,34.93959744027234L295.55650283719297,33.830333470396L292.7236860806879,32.300604198127985L290.52290476471535,34.550518905816716L289.9946957100765,35.09132684621727L290.97231991868466,38.16489586075477L287.35775991284754,41.457161227051984L285.96034973298083,42.700165528440266L285.75150408767513,42.86868802730169L285.53618458705023,43.02878961971146L285.3147279547702,43.18021996640891L285.0874791496899,43.32274178710941L284.8547949451313,43.456132718449226L284.61703920844593,43.58018419108703L284.1721440201509,42.6740453534876L280.91860880708555,43.95695185843215L275.6090917418769,45.448255293187685L273.91526912662084,47.06366753867769L270.11992949654814,50.585792808633414L268.76682680810336,49.08414071943844L267.33894098119345,47.526123018047656L265.2919102954329,45.25941722530115L264.72093371354276,44.683366599390865L264.5053097701166,44.465813484974205L264.202246537694,44.121305671622395L264.00561760604614,43.05324097099947L263.8698182240187,42.315606618038146L262.4758278563095,41.550757289049216L262.45941701025004,40.81833165064745L262.6415307063435,39.995872588522616L262.80858658926445,39.40206427391968L262.8434496015834,38.8946115749568L263.10278952671797,37.81071739827166L263.3876064667129,37.21408163798333L263.79028483870206,36.487817057277425L264.0837195023487,35.86523172570742L264.28549837780884,34.96002772130305L264.6278054412978,34.3000111841684L264.97682771485415,33.334903219525586L265.4555091787188,32.693315889147925L265.81061342998873,31.908064456889406L267.3670126174111,28.466381977894343L267.61956931010354,28.234973357743L268.81493728610803,25.684435084214783L269.1220682366111,24.924183878974873L269.4880224663648,24.391034235435654L270.42023572305334,23.350564163614763L270.99320806821925,22.60093451355351L271.3972696275159,22.10869090385677L271.63911231362727,21.934243112700642L271.7941891985247,21.831627859195578L272.7521462343284,21.561281615693588L274.14225118685863,20.087685007383698L274.78326083000866,19.24039013971924L274.95340133146965,19.018925924945506L275.06151058195974,18.918437961750897L275.2066876896715,18.942185298670665ZM281.4117908105545,15.189936458104057L281.36826207267586,15.323744807290495L281.3527639390668,15.317504171136534L281.3247569639934,15.432650681599625L281.23176229343517,15.401442277492606L281.25975267597823,15.292476940478082L281.2349638353335,15.28627598863386L281.2691887038818,15.152459444172564L281.2908925159136,15.152478432370117L281.3406377185893,14.999999999985448L281.4243280129449,15.034311962270294L281.3807876565552,15.183682240342023Z" /></svg>